<?xml version="1.0" encoding="UTF-8"?>
<svg version="1.1" xmlns="http://www.w3.org/2000/svg" width="155" height="159">
<path d="M0 0 C0.99 0.66 1.98 1.32 3 2 C5.09893975 1.83596295 5.09893975 1.83596295 7.3125 1.3125 C10.76783977 0.84952964 12.69291386 0.87413092 15.5625 2.9375 C18.81208927 7.02031729 18.51693033 8.91685179 18 14 C18.69891357 14.26264648 19.39782715 14.52529297 20.11791992 14.79589844 C25.1024326 16.87837336 29.75666477 19.60908805 34.47338867 22.22998047 C36.29318959 23.23928994 38.11804742 24.2389815 39.94335938 25.23828125 C57.8810173 35.12426446 57.8810173 35.12426446 62.8125 45.5 C63.6475739 47.20224684 64.48354776 48.90405242 65.3203125 50.60546875 C65.74989258 51.49024902 66.17947266 52.3750293 66.62207031 53.28662109 C68.02329543 56.04587268 69.54571663 58.69779134 71.1171875 61.36328125 C78.26304899 73.82454278 80.45281195 83.29478832 78.33398438 97.56884766 C77.96589381 99.99809186 77.96589381 99.99809186 77.86914062 102.45849609 C77.64003162 106.48035524 77.34980914 108.5138584 74.9453125 111.85546875 C71.40203219 114.43539035 67.99362843 115.8908605 63.875 117.3125 C63.15957031 117.57611328 62.44414062 117.83972656 61.70703125 118.11132812 C58.68779391 119.19768922 56.2310908 120 53 120 C53.08701172 121.87945312 53.08701172 121.87945312 53.17578125 123.796875 C53.22268478 125.4478794 53.26818431 127.09892411 53.3125 128.75 C53.3753418 129.9875 53.3753418 129.9875 53.43945312 131.25 C53.5629521 137.37554894 53.5629521 137.37554894 50.67578125 140.578125 C48 142 48 142 44.875 142 C41.50832606 140.82898298 40.76293343 140.03989693 39 137 C38.70703125 134.203125 38.70703125 134.203125 38.8125 131.25 C38.85310547 129.77273437 38.85310547 129.77273437 38.89453125 128.265625 C38.92933594 127.51796875 38.96414062 126.7703125 39 126 C38.2064209 126.29132813 37.4128418 126.58265625 36.59521484 126.8828125 C35.47840332 127.29273437 34.3615918 127.70265625 33.2109375 128.125 C32.60416672 128.34778122 31.99739594 128.57056244 31.37223816 128.8000946 C28.00286216 130.03686894 24.63279196 131.27170049 21.26147461 132.50317383 C14.94815589 134.81048121 8.64013066 137.12708217 2.35546875 139.51171875 C0.87457764 140.06762695 0.87457764 140.06762695 -0.63623047 140.63476562 C-2.45512727 141.31831827 -4.27079724 142.01054305 -6.08251953 142.71289062 C-10.94798417 144.52820498 -14.79836289 145.4728761 -20 145 C-20.33 144.67 -20.66 144.34 -21 144 C-21.03867188 145.37285156 -21.03867188 145.37285156 -21.078125 146.7734375 C-21.16320313 148.55621094 -21.16320313 148.55621094 -21.25 150.375 C-21.29640625 151.55835938 -21.3428125 152.74171875 -21.390625 153.9609375 C-22 157 -22 157 -23.921875 158.4765625 C-26 159 -26 159 -28 158 C-27.92136719 156.68386719 -27.84273437 155.36773437 -27.76171875 154.01171875 C-27.20405775 143.51725508 -27.20405775 143.51725508 -31.64453125 134.46875 C-34.33560217 132.05156706 -37.26166658 130.02274681 -40.31396484 128.08886719 C-42.78017212 126.49615296 -45.02966832 124.65478522 -47.3125 122.8125 C-48.53935872 121.87198173 -49.76750945 120.93312592 -51 120 C-51.06058594 120.75925781 -51.12117188 121.51851563 -51.18359375 122.30078125 C-51.26738281 123.29464844 -51.35117187 124.28851563 -51.4375 125.3125 C-51.51871094 126.29863281 -51.59992187 127.28476563 -51.68359375 128.30078125 C-52 131 -52 131 -53 134 C-53.99 134.33 -54.98 134.66 -56 135 C-58.92478845 132.56187874 -58.92478845 132.56187874 -59.2578125 130.07397461 C-59.21398437 129.35733643 -59.17015625 128.64069824 -59.125 127.90234375 C-58.43823219 118.18280404 -58.43823219 118.18280404 -62.43359375 109.8046875 C-65.36032722 107.2910859 -65.36032722 107.2910859 -68.43359375 105.30078125 C-71.81274438 102.27137528 -72.30524238 99.29709753 -73 95 C-73.14010498 94.28932373 -73.28020996 93.57864746 -73.42456055 92.84643555 C-73.85869172 90.63159709 -74.24612787 88.41240724 -74.625 86.1875 C-74.7590625 85.45724609 -74.893125 84.72699219 -75.03125 83.97460938 C-75.4272505 81.65315746 -75.7335209 79.33982795 -76 77 C-76.10779785 76.1322998 -76.2155957 75.26459961 -76.32666016 74.37060547 C-76.89552135 66.11697339 -73.82180844 61.31926044 -69.125 54.75 C-68.44405273 53.75581055 -67.76310547 52.76162109 -67.06152344 51.73730469 C-65.69498353 49.74392344 -64.31883489 47.75709136 -62.93261719 45.77734375 C-60.29375379 41.98506103 -57.77482474 38.11860448 -55.25 34.25 C-51.39492776 28.35437907 -49.17087669 25.03233686 -42.16015625 23.17578125 C-41.01482422 22.86962891 -39.86949219 22.56347656 -38.68945312 22.24804688 C-37.49255859 21.93931641 -36.29566406 21.63058594 -35.0625 21.3125 C-33.86947266 20.99216797 -32.67644531 20.67183594 -31.44726562 20.34179688 C-22.56441564 18 -22.56441564 18 -18 18 C-18 14.7 -18 11.4 -18 8 C-16.35 7.67 -14.7 7.34 -13 7 C-13 5.35 -13 3.7 -13 2 C-8.5153968 0.56492698 -4.76549564 -0.43322688 0 0 Z " fill="#363636" transform="translate(76,0)"/>
<path d="M0 0 C3.50536691 1.33616154 6.76669207 2.87599071 10.0546875 4.6796875 C11.47201172 5.45505859 11.47201172 5.45505859 12.91796875 6.24609375 C13.89378906 6.78363281 14.86960937 7.32117188 15.875 7.875 C16.84308594 8.40480469 17.81117187 8.93460938 18.80859375 9.48046875 C20.68927946 10.51164745 22.56786668 11.54666488 24.4440918 12.5859375 C26.03192931 13.46441251 27.62384642 14.33560621 29.22192383 15.1953125 C33.89619865 17.75087675 33.89619865 17.75087675 34.9375 20.25 C34.958125 20.8275 34.97875 21.405 35 22 C35.66 22 36.32 22 37 22 C37.50333542 24.60356241 38.00279378 27.20776651 38.5 29.8125 C38.64308594 30.55048828 38.78617187 31.28847656 38.93359375 32.04882812 C39.50926281 35.07794391 40 37.909196 40 41 C33.375 44 33.375 44 30 44 C29.01 40.37 28.02 36.74 27 33 C27.61733362 40.09933659 28.6307607 47.00757405 30 54 C30.97582031 53.6390625 31.95164062 53.278125 32.95703125 52.90625 C34.24209569 52.43724838 35.52725704 51.96851221 36.8125 51.5 C37.45509766 51.26152344 38.09769531 51.02304688 38.75976562 50.77734375 C41.64933739 49.72931254 43.90076061 49 47 49 C47 48.34 47 47.68 47 47 C46.01 46.67 45.02 46.34 44 46 C44.66 45.67 45.32 45.34 46 45 C49.01631746 46.11127485 50.62022512 47.33203583 52.21484375 50.13671875 C55 56.29181495 55 56.29181495 55 59 C52.90234375 59.69921875 50.8046875 60.3984375 48.70703125 61.09765625 C48.02956345 61.32353928 47.35209564 61.5494223 46.65409851 61.78215027 C42.7802017 63.07370302 38.90598646 64.3642886 35.03125 65.65332031 C26.63010459 68.44937147 18.23250978 71.2553026 9.84318542 74.08665466 C5.73737193 75.47173649 1.63003211 76.85225944 -2.47744751 78.23239136 C-4.49117307 78.91035627 -6.5041768 79.590469 -8.51644897 80.2727356 C-11.35290746 81.23416795 -14.19177059 82.18815825 -17.03125 83.140625 C-17.88076736 83.43067917 -18.73028473 83.72073334 -19.60554504 84.01957703 C-20.39120346 84.28156387 -21.17686188 84.54355072 -21.98632812 84.81347656 C-22.66828247 85.04375549 -23.35023682 85.27403442 -24.05285645 85.5112915 C-26 86 -26 86 -30 86 C-29.798422 84.05943567 -29.56268261 82.12239852 -29.3125 80.1875 C-29.12107422 78.56908203 -29.12107422 78.56908203 -28.92578125 76.91796875 C-28 74 -28 74 -25.80859375 72.2421875 C-21.81008656 70.47372396 -17.72501802 69.23357255 -13.546875 67.96484375 C-10.85449032 67.2739698 -10.85449032 67.2739698 -10 65 C-9.34 65 -8.68 65 -8 65 C-8.94552286 61.51722036 -9.90853636 58.03952151 -10.875 54.5625 C-11.14441406 53.56927734 -11.41382812 52.57605469 -11.69140625 51.55273438 C-11.95566406 50.60849609 -12.21992187 49.66425781 -12.4921875 48.69140625 C-12.73308105 47.81685791 -12.97397461 46.94230957 -13.22216797 46.04125977 C-13.80706619 43.81456717 -13.80706619 43.81456717 -16 43 C-16.04898438 43.78503906 -16.09796875 44.57007813 -16.1484375 45.37890625 C-16.22320312 46.42949219 -16.29796875 47.48007813 -16.375 48.5625 C-16.44460937 49.59503906 -16.51421875 50.62757812 -16.5859375 51.69140625 C-17.05527469 55.44167605 -17.50412028 58.50961398 -19 62 C-21.55549059 63.39418252 -23.39643328 64.18376721 -26.125 64.9375 C-26.78371094 65.14439453 -27.44242188 65.35128906 -28.12109375 65.56445312 C-29.73958237 66.0687648 -31.36894652 66.53793916 -33 67 C-33.33 66.34 -33.66 65.68 -34 65 C-34 66.32 -34 67.64 -34 69 C-32.07977297 70.77409808 -32.07977297 70.77409808 -30 72 C-30.47627975 73.95903745 -30.95611423 75.91721097 -31.4375 77.875 C-31.70433594 78.96554688 -31.97117188 80.05609375 -32.24609375 81.1796875 C-33 84 -33 84 -34 86 C-37.68825797 84.33404773 -40.86525007 82.05442256 -44.125 79.6875 C-44.72973145 79.25163574 -45.33446289 78.81577148 -45.95751953 78.36669922 C-47.27528272 77.41640523 -48.59214084 76.46485521 -49.90820312 75.51220703 C-52.05505873 73.9601968 -54.20671489 72.41504107 -56.359375 70.87109375 C-63.96797638 65.40719325 -71.5447921 59.90092988 -79.0625 54.3125 C-80.08996338 53.55477295 -80.08996338 53.55477295 -81.13818359 52.78173828 C-85.88314973 49.23370054 -85.88314973 49.23370054 -87 47 C-84.03 42.545 -84.03 42.545 -81 38 C-79.35 38.66 -77.7 39.32 -76 40 C-74.41167112 37.02347168 -72.83029131 34.04330229 -71.25 31.0625 C-70.8065625 30.23169922 -70.363125 29.40089844 -69.90625 28.54492188 C-67.03634465 23.12164486 -64.41200997 17.64195401 -62 12 C-60.68 12.66 -59.36 13.32 -58 14 C-58.58551824 17.49923274 -59.49365677 20.36357396 -61.06640625 23.5390625 C-61.46923828 24.36664063 -61.87207031 25.19421875 -62.28710938 26.046875 C-63.14124276 27.77345397 -63.99540972 29.50001632 -64.84960938 31.2265625 C-65.25115234 32.0515625 -65.65269531 32.8765625 -66.06640625 33.7265625 C-66.43709229 34.47502441 -66.80777832 35.22348633 -67.18969727 35.99462891 C-68.18731924 38.10310341 -68.18731924 38.10310341 -68 41 C-67.76812988 40.45996338 -67.53625977 39.91992676 -67.29736328 39.36352539 C-66.24666876 36.92686975 -65.18598596 34.494691 -64.125 32.0625 C-63.76019531 31.21236328 -63.39539063 30.36222656 -63.01953125 29.48632812 C-62.66503906 28.67744141 -62.31054688 27.86855469 -61.9453125 27.03515625 C-61.62062988 26.2862915 -61.29594727 25.53742676 -60.96142578 24.76586914 C-60 23 -60 23 -58 22 C-57.71618136 25.26882314 -57.47882509 28.53940391 -57.25 31.8125 C-57.16878906 32.74126953 -57.08757813 33.67003906 -57.00390625 34.62695312 C-56.94589844 35.51962891 -56.88789062 36.41230469 -56.828125 37.33203125 C-56.7652832 38.15421143 -56.70244141 38.9763916 -56.63769531 39.82348633 C-57 42 -57 42 -59.01074219 43.79174805 C-59.66719727 44.19047119 -60.32365234 44.58919434 -61 45 C-59.06401165 46.62683052 -57.12629031 48.25151469 -55.1875 49.875 C-54.36668945 50.56529297 -54.36668945 50.56529297 -53.52929688 51.26953125 C-51.08054339 53.31757962 -48.65921675 55.22718883 -46 57 C-46.33 58.32 -46.66 59.64 -47 61 C-44.35261084 62.4606285 -43.10551666 63 -40 63 C-39.59160889 62.18732666 -39.18321777 61.37465332 -38.76245117 60.53735352 C-37.24391636 57.52723504 -35.71670266 54.52186633 -34.18334961 51.51928711 C-33.52127606 50.21835074 -32.86272291 48.91561655 -32.20776367 47.61108398 C-31.26618481 45.73719237 -30.31217141 43.87011221 -29.35546875 42.00390625 C-28.78465576 40.87799072 -28.21384277 39.7520752 -27.62573242 38.59204102 C-26 36 -26 36 -23 35 C-22.34 35.33 -21.68 35.66 -21 36 C-21 35.01 -21 34.02 -21 33 C-21.66386719 32.7628125 -22.32773438 32.525625 -23.01171875 32.28125 C-26.81000018 30.65270581 -30.26684994 28.61386969 -33.8125 26.5 C-34.54718506 26.06510254 -35.28187012 25.63020508 -36.03881836 25.18212891 C-43.77187818 20.58204277 -51.39623287 15.80991999 -59 11 C-58 9 -58 9 -56.00634766 8.31396484 C-54.7231665 8.01546631 -54.7231665 8.01546631 -53.4140625 7.7109375 C-52.01800781 7.38222656 -52.01800781 7.38222656 -50.59375 7.046875 C-49.6140625 6.82515625 -48.634375 6.6034375 -47.625 6.375 C-46.65304688 6.14554688 -45.68109375 5.91609375 -44.6796875 5.6796875 C-37.44103423 4 -37.44103423 4 -34 4 C-34.33 5.32 -34.66 6.64 -35 8 C-39.29 8.99 -43.58 9.98 -48 11 C-42.99819514 15.00144389 -37.98260357 18.04109969 -32.4375 21.1875 C-31.49197266 21.73341797 -30.54644531 22.27933594 -29.57226562 22.84179688 C-28.66025391 23.36193359 -27.74824219 23.88207031 -26.80859375 24.41796875 C-25.98157959 24.89000732 -25.15456543 25.3620459 -24.30249023 25.84838867 C-19.64366907 28.17854024 -17.07955204 28.01460605 -12.01953125 26.671875 C-10.85486328 26.36636719 -9.69019531 26.06085937 -8.49023438 25.74609375 C-7.27658203 25.41738281 -6.06292969 25.08867188 -4.8125 24.75 C-3.61818359 24.43675781 -2.42386719 24.12351562 -1.19335938 23.80078125 C5.28981963 22.08097262 11.66529569 20.20455875 18 18 C17.49025635 17.7326001 16.9805127 17.4652002 16.45532227 17.18969727 C14.15670784 15.9825377 11.85958995 14.77255777 9.5625 13.5625 C8.35883789 12.93118164 8.35883789 12.93118164 7.13085938 12.28710938 C6.36708984 11.88427734 5.60332031 11.48144531 4.81640625 11.06640625 C4.10943604 10.69459229 3.40246582 10.32277832 2.67407227 9.93969727 C1 9 1 9 0 8 C-0.14115161 5.32941149 -0.04247107 2.67567762 0 0 Z " fill="#BDBDBD" transform="translate(93,19)"/>
<path d="M0 0 C-0.13959201 3.22946798 -0.28778105 6.45848691 -0.4375 9.6875 C-0.47681641 10.59951172 -0.51613281 11.51152344 -0.55664062 12.45117188 C-0.59853516 13.33740234 -0.64042969 14.22363281 -0.68359375 15.13671875 C-0.72025146 15.94842529 -0.75690918 16.76013184 -0.79467773 17.59643555 C-0.86243408 18.38961182 -0.93019043 19.18278809 -1 20 C-1.02263916 20.86052979 -1.04527832 21.72105957 -1.06860352 22.60766602 C-2 25 -2 25 -4.99804688 26.64160156 C-6.39735413 27.16216311 -7.80528736 27.65982517 -9.21875 28.140625 C-10.00431274 28.42657532 -10.78987549 28.71252563 -11.59924316 29.00714111 C-13.38892831 29.65646181 -15.18196001 30.29660359 -16.97753906 30.92944336 C-20.24714193 32.08753775 -23.50282568 33.27997219 -26.7578125 34.47851562 C-33.67673204 37.02263468 -40.60686898 39.53465373 -47.53967285 42.04058838 C-50.16882616 42.99203769 -52.79665702 43.94711148 -55.4245224 44.90211105 C-58.60499344 46.05712696 -61.7869473 47.2080326 -64.96875 48.359375 C-66.70964905 48.99223419 -66.70964905 48.99223419 -68.48571777 49.63787842 C-74.93772474 51.96510425 -81.40341912 54.11908743 -88 56 C-88.1170409 46.59771406 -87.88495497 37.37104106 -87 28 C-78.30447796 24.33526556 -69.39183305 21.34902239 -60.44921875 18.359375 C-58.86121782 17.82704679 -57.2732308 17.29467708 -55.68525696 16.76226807 C-52.37708702 15.65408222 -49.06806588 14.54848 -45.75854492 13.44433594 C-41.52172336 12.0302565 -37.28823064 10.60647199 -33.05543804 9.18038559 C-29.78603082 8.08067362 -26.51439631 6.98771225 -23.24210548 5.89661407 C-21.67960373 5.37438033 -20.11792425 4.84967949 -18.55710411 4.3224411 C-16.37980886 3.58772163 -14.19955137 2.86255551 -12.01831055 2.13964844 C-10.78050339 1.72535583 -9.54269623 1.31106323 -8.26737976 0.88421631 C-5.31527707 0.08532009 -3.03092685 -0.19662783 0 0 Z " fill="#E8E8E8" transform="translate(149,83)"/>
<path d="M0 0 C0.82054507 3.16463664 1.62993426 6.33202862 2.4375 9.5 C2.66759766 10.386875 2.89769531 11.27375 3.13476562 12.1875 C4.4724475 17.46068074 5.44980993 22.58663562 6 28 C6.97582031 27.6390625 7.95164063 27.278125 8.95703125 26.90625 C10.24209569 26.43724838 11.52725704 25.96851221 12.8125 25.5 C13.45509766 25.26152344 14.09769531 25.02304688 14.75976562 24.77734375 C17.64933739 23.72931254 19.90076061 23 23 23 C23 22.34 23 21.68 23 21 C21.515 20.505 21.515 20.505 20 20 C20.99 19.505 20.99 19.505 22 19 C25.01631746 20.11127485 26.62022512 21.33203583 28.21484375 24.13671875 C31 30.29181495 31 30.29181495 31 33 C28.90234375 33.69921875 26.8046875 34.3984375 24.70703125 35.09765625 C24.02956345 35.32353928 23.35209564 35.5494223 22.65409851 35.78215027 C18.7802017 37.07370302 14.90598646 38.3642886 11.03125 39.65332031 C2.63010459 42.44937147 -5.76749022 45.2553026 -14.15681458 48.08665466 C-18.26262807 49.47173649 -22.36996789 50.85225944 -26.47744751 52.23239136 C-28.49117307 52.91035627 -30.5041768 53.590469 -32.51644897 54.2727356 C-35.35290746 55.23416795 -38.19177059 56.18815825 -41.03125 57.140625 C-41.88076736 57.43067917 -42.73028473 57.72073334 -43.60554504 58.01957703 C-44.39120346 58.28156387 -45.17686188 58.54355072 -45.98632812 58.81347656 C-46.66828247 59.04375549 -47.35023682 59.27403442 -48.05285645 59.5112915 C-50 60 -50 60 -54 60 C-53.798422 58.05943567 -53.56268261 56.12239852 -53.3125 54.1875 C-53.18488281 53.10855469 -53.05726562 52.02960938 -52.92578125 50.91796875 C-52 48 -52 48 -49.80859375 46.2421875 C-45.81008656 44.47372396 -41.72501802 43.23357255 -37.546875 41.96484375 C-34.85449032 41.2739698 -34.85449032 41.2739698 -34 39 C-33.34 39 -32.68 39 -32 39 C-32.34933594 37.75605469 -32.69867188 36.51210937 -33.05859375 35.23046875 C-33.51871642 33.54961247 -33.97832408 31.86861516 -34.4375 30.1875 C-34.66759766 29.37345703 -34.89769531 28.55941406 -35.13476562 27.72070312 C-36.81826004 21.49909334 -37.596196 15.4279161 -38 9 C-33.23280807 7.71189895 -28.46392308 6.4303421 -23.69335938 5.15478516 C-22.07113375 4.72005203 -20.44938298 4.28354286 -18.828125 3.84521484 C-16.49602228 3.21503267 -14.16227952 2.59128327 -11.828125 1.96875 C-11.10506165 1.77188599 -10.38199829 1.57502197 -9.63702393 1.37219238 C-6.26642428 0.47957865 -3.51760173 0 0 0 Z " fill="#E9E9E9" transform="translate(117,45)"/>
<path d="M0 0 C0.66 0.66 1.32 1.32 2 2 C1.46375 2.845625 0.9275 3.69125 0.375 4.5625 C-1.33807057 8.84517642 -0.60455021 10.77749945 1 15 C0.34 14.67 -0.32 14.34 -1 14 C-0.5373308 17.92284413 -0.05460791 21.83974756 0.4765625 25.75390625 C0.80699503 28.23544354 1.01612841 30.57988982 1.0859375 33.08984375 C1.44705367 38.94508454 3.38597493 41.81155882 7.63525391 45.6237793 C10.68437024 48.18067771 13.82898231 50.59733747 17 53 C18.62823191 54.30848848 20.25364745 55.6204969 21.875 56.9375 C23.03902344 57.85595703 23.03902344 57.85595703 24.2265625 58.79296875 C26.48642503 60.59131006 28.7272749 62.40772905 30.9609375 64.23828125 C31.66750488 64.81650635 32.37407227 65.39473145 33.10205078 65.99047852 C34.50053286 67.13606392 35.89742799 68.28359024 37.29248047 69.43334961 C43.52512759 75.21132943 43.52512759 75.21132943 51 78 C51.66 76.68 52.32 75.36 53 74 C53 75.98 53 77.96 53 80 C54.19447754 79.55833496 55.38895508 79.11666992 56.61962891 78.66162109 C58.32193764 78.03221989 60.02424907 77.40282601 61.7265625 76.7734375 C62.64567413 76.43361343 63.56478577 76.09378937 64.51174927 75.7436676 C69.6341734 73.84989973 74.75683239 71.9567703 79.87988281 70.06469727 C82.00065294 69.28141791 84.12142116 68.49813337 86.2421875 67.71484375 C87.30796021 67.32122147 88.37373291 66.92759918 89.47180176 66.52204895 C95.54878731 64.27701841 101.62418805 62.027785 107.69772339 59.7734375 C111.21894971 58.46683738 114.74107345 57.16266856 118.2633667 55.85894775 C119.91976056 55.24515383 121.57572724 54.63020589 123.23126221 54.01409912 C125.52289216 53.16141444 127.81594349 52.31266852 130.109375 51.46484375 C130.78428986 51.21255508 131.45920471 50.96026642 132.15457153 50.70033264 C136.77204908 49 136.77204908 49 139 49 C139.33 42.73 139.66 36.46 140 30 C141.32 29.34 142.64 28.68 144 28 C146 30 146 30 146.23046875 32.28515625 C146.18548904 35.19248085 146.11514315 38.09455461 146 41 C145.98195312 41.84175781 145.96390625 42.68351562 145.9453125 43.55078125 C145.87957031 44.70126953 145.87957031 44.70126953 145.8125 45.875 C145.77769531 46.55304688 145.74289063 47.23109375 145.70703125 47.9296875 C144.40582522 51.7398488 141.68184282 54.1333755 138.13891602 55.95898438 C136.07129948 56.81988787 133.99197839 57.58177613 131.875 58.3125 C131.15957031 58.57611328 130.44414062 58.83972656 129.70703125 59.11132812 C126.68779391 60.19768922 124.2310908 61 121 61 C121.08701172 62.87945312 121.08701172 62.87945312 121.17578125 64.796875 C121.22268478 66.4478794 121.26818431 68.09892411 121.3125 69.75 C121.3753418 70.9875 121.3753418 70.9875 121.43945312 72.25 C121.5629521 78.37554894 121.5629521 78.37554894 118.67578125 81.578125 C116 83 116 83 112.875 83 C109.50832606 81.82898298 108.76293343 81.03989693 107 78 C106.70703125 75.203125 106.70703125 75.203125 106.8125 72.25 C106.85310547 70.77273437 106.85310547 70.77273437 106.89453125 69.265625 C106.92933594 68.51796875 106.96414062 67.7703125 107 67 C106.2064209 67.29132813 105.4128418 67.58265625 104.59521484 67.8828125 C103.47840332 68.29273437 102.3615918 68.70265625 101.2109375 69.125 C100.60416672 69.34778122 99.99739594 69.57056244 99.37223816 69.8000946 C96.00286216 71.03686894 92.63279196 72.27170049 89.26147461 73.50317383 C82.94815589 75.81048121 76.64013066 78.12708217 70.35546875 80.51171875 C68.87457764 81.06762695 68.87457764 81.06762695 67.36376953 81.63476562 C65.54487273 82.31831827 63.72920276 83.01054305 61.91748047 83.71289062 C57.05201583 85.52820498 53.20163711 86.4728761 48 86 C47.67 85.67 47.34 85.34 47 85 C46.96132812 86.37285156 46.96132812 86.37285156 46.921875 87.7734375 C46.86515625 88.96195312 46.8084375 90.15046875 46.75 91.375 C46.70359375 92.55835938 46.6571875 93.74171875 46.609375 94.9609375 C46 98 46 98 44.078125 99.4765625 C42 100 42 100 40 99 C40.07863281 97.68386719 40.15726563 96.36773437 40.23828125 95.01171875 C40.79594225 84.51725508 40.79594225 84.51725508 36.35546875 75.46875 C33.66439783 73.05156706 30.73833342 71.02274681 27.68603516 69.08886719 C25.21982788 67.49615296 22.97033168 65.65478522 20.6875 63.8125 C19.46064128 62.87198173 18.23249055 61.93312592 17 61 C16.90912109 62.13888672 16.90912109 62.13888672 16.81640625 63.30078125 C16.73261719 64.29464844 16.64882813 65.28851563 16.5625 66.3125 C16.48128906 67.29863281 16.40007813 68.28476563 16.31640625 69.30078125 C16 72 16 72 15 75 C13.515 75.495 13.515 75.495 12 76 C9.07521155 73.56187874 9.07521155 73.56187874 8.7421875 71.07397461 C8.78601563 70.35733643 8.82984375 69.64069824 8.875 68.90234375 C9.56176781 59.18280404 9.56176781 59.18280404 5.56640625 50.8046875 C2.63967278 48.2910859 2.63967278 48.2910859 -0.43359375 46.30078125 C-3.81274438 43.27137528 -4.30524238 40.29709753 -5 36 C-5.14010498 35.28932373 -5.28020996 34.57864746 -5.42456055 33.84643555 C-10.12439578 9.86894567 -10.12439578 9.86894567 -6.1875 3.3125 C-5.465625 2.549375 -4.74375 1.78625 -4 1 C-3.01 1 -2.02 1 -1 1 C-0.67 0.67 -0.34 0.34 0 0 Z " fill="#3F3F3F" transform="translate(8,59)"/>
<path d="M0 0 C-0.70068359 2.40112305 -0.70068359 2.40112305 -2 5 C-4.15478516 6.02661133 -4.15478516 6.02661133 -6.7890625 6.58203125 C-7.73007812 6.79150391 -8.67109375 7.00097656 -9.640625 7.21679688 C-10.62546875 7.41337891 -11.6103125 7.60996094 -12.625 7.8125 C-13.61757813 8.02841797 -14.61015625 8.24433594 -15.6328125 8.46679688 C-18.08508541 8.99733669 -20.5398737 9.50740453 -23 10 C-18.21446482 14.1835169 -12.78376903 17.19411486 -7.3125 20.375 C-4.47578303 22.03476058 -1.63966231 23.69541275 1.19287109 25.36230469 C3.09755515 26.47350843 5.01241766 27.56741186 6.93603516 28.64550781 C8.30767822 29.42812988 8.30767822 29.42812988 9.70703125 30.2265625 C10.53307861 30.68885254 11.35912598 31.15114258 12.21020508 31.62744141 C12.8008374 32.08038574 13.39146973 32.53333008 14 33 C14 33.99 14 34.98 14 36 C12.68 36 11.36 36 10 36 C9.5968457 36.81267334 9.19369141 37.62534668 8.77832031 38.46264648 C7.27598052 41.47444514 5.76148206 44.47944596 4.23828125 47.48071289 C3.58159819 48.78093887 2.92986277 50.08367598 2.28320312 51.38891602 C1.35275114 53.26480425 0.4048744 55.13093952 -0.546875 56.99609375 C-1.39523926 58.68496704 -1.39523926 58.68496704 -2.26074219 60.40795898 C-4 63 -4 63 -6.07519531 63.94946289 C-8 64 -8 64 -10.25 62.8125 C-12 61 -12 61 -12 57 C-14.09370197 55.13336148 -16.09556811 53.5412775 -18.375 51.9375 C-24.77718878 47.33421683 -24.77718878 47.33421683 -27 44 C-26.33484375 43.69449219 -25.6696875 43.38898437 -24.984375 43.07421875 C-22.83339668 41.2401269 -22.83339668 41.2401269 -22.76367188 39.06494141 C-22.83209858 36.62801754 -23.01425283 34.23962432 -23.25 31.8125 C-23.4975 28.904375 -23.745 25.99625 -24 23 C-26.97 29.93 -29.94 36.86 -33 44 C-33.33 44 -33.66 44 -34 44 C-34.86640511 37.6035771 -31.77452896 32.87435466 -28.9375 27.375 C-27.97737257 25.51339835 -27.02764737 23.64638431 -26.08984375 21.7734375 C-25.66566162 20.95278809 -25.24147949 20.13213867 -24.80444336 19.28662109 C-23.88745188 16.68008324 -23.91997325 15.52157458 -25 13 C-25.66 12.67 -26.32 12.34 -27 12 C-27.16326782 13.05997192 -27.16326782 13.05997192 -27.32983398 14.14135742 C-28.07363631 17.31410112 -29.24731327 19.83418507 -30.72265625 22.73828125 C-31.26083984 23.80498047 -31.79902344 24.87167969 -32.35351562 25.97070312 C-32.91748047 27.07349609 -33.48144531 28.17628906 -34.0625 29.3125 C-34.63033203 30.43462891 -35.19816406 31.55675781 -35.78320312 32.71289062 C-37.18342977 35.47804408 -38.58918665 38.24023716 -40 41 C-41.98 40.01 -43.96 39.02 -46 38 C-46.33 38.99 -46.66 39.98 -47 41 C-48.9375 41.625 -48.9375 41.625 -51 42 C-51.99 42.495 -51.99 42.495 -53 43 C-52.42508998 38.72687541 -50.93172024 35.90095267 -48.61328125 32.2890625 C-47.92169922 31.20882812 -47.23011719 30.12859375 -46.51757812 29.015625 C-46.1547876 28.45810547 -45.79199707 27.90058594 -45.41821289 27.32617188 C-44.32426497 25.64310076 -43.24504596 23.95048611 -42.16601562 22.2578125 C-40.15551078 19.13902382 -38.09134462 16.06497466 -36 13 C-35.53916016 12.27135742 -35.07832031 11.54271484 -34.60351562 10.79199219 C-30.27035238 4.70152661 -23.84449046 3.66378375 -16.875 2 C-15.69550781 1.68933594 -14.51601563 1.37867188 -13.30078125 1.05859375 C-3.82604713 -1.3451215 -3.82604713 -1.3451215 0 0 Z " fill="#343434" transform="translate(58,19)"/>
<path d="M0 0 C6.48648107 3.92568594 12.61993511 8.13231249 18.58959961 12.80737305 C24.3395783 17.30098348 30.22138537 21.60920545 36.11328125 25.91430664 C37.64760215 27.03827459 39.17195812 28.17597843 40.68579102 29.32739258 C42.98817494 31.0535938 42.98817494 31.0535938 45.57788086 32.4753418 C48.25725559 34.13694719 50.09045855 35.48167131 52 38 C52.9444264 42.89483785 52.53856383 47.49989555 52.0625 52.4375 C51.97419922 53.74138672 51.88589844 55.04527344 51.79492188 56.38867188 C51.57156423 59.59796862 51.30551513 62.79765462 51 66 C45.61998409 62.02307942 40.36427754 57.92496093 35.1875 53.6875 C34.14493042 52.83720215 34.14493042 52.83720215 33.08129883 51.96972656 C31.05289096 50.31474453 29.0262122 48.65766901 27 47 C25.9790625 46.16597656 24.958125 45.33195312 23.90625 44.47265625 C22.13715466 43.02636997 20.37134419 41.57605316 18.609375 40.12109375 C16.74608851 38.60647614 14.85757643 37.12267729 12.953125 35.66015625 C11.95796875 34.88542969 10.9628125 34.11070313 9.9375 33.3125 C9.03902344 32.62800781 8.14054688 31.94351563 7.21484375 31.23828125 C2.55314856 26.52725596 2.32551264 19.67942054 1.375 13.375 C1.2409375 12.529375 1.106875 11.68375 0.96875 10.8125 C0.39837521 7.12252434 0 3.75232481 0 0 Z " fill="#BDBDBD" transform="translate(6,72)"/>
<path d="M0 0 C6.42222222 -0.25185185 6.42222222 -0.25185185 9.4375 1.0625 C13.18177507 2.43235673 16.07401999 1.57924295 20 1 C20.66 1.33 21.32 1.66 22 2 C22 2.66 22 3.32 22 4 C19.29120665 5.35439668 16.99066732 5.06501451 14 5 C14 5.66 14 6.32 14 7 C16.475 7.99 16.475 7.99 19 9 C19.495 17.91 19.495 17.91 20 27 C20.66 26.34 21.32 25.68 22 25 C26.06405122 25.32540103 28.89974062 26.92383746 32.3125 29.0625 C33.19550781 29.61035156 34.07851562 30.15820312 34.98828125 30.72265625 C35.65214844 31.14417969 36.31601563 31.56570312 37 32 C33.14494475 35.85505525 26.8538399 36.35657403 21.6875 37.6875 C20.45064453 38.02072266 19.21378906 38.35394531 17.93945312 38.69726562 C16.74642578 39.00728516 15.55339844 39.31730469 14.32421875 39.63671875 C13.23197998 39.92248779 12.13974121 40.20825684 11.0144043 40.50268555 C5.7027788 41.37899405 2.30941982 39.83856657 -2.30078125 37.27734375 C-3.27724609 36.73916016 -4.25371094 36.20097656 -5.25976562 35.64648438 C-6.26716797 35.08251953 -7.27457031 34.51855469 -8.3125 33.9375 C-9.33923828 33.36966797 -10.36597656 32.80183594 -11.42382812 32.21679688 C-13.9526018 30.81715005 -16.47777036 29.41139489 -19 28 C-19 27.34 -19 26.68 -19 26 C-13.23828125 24.828125 -13.23828125 24.828125 -11 25 C-8.525 26.98 -8.525 26.98 -6 29 C-5.67 21.41 -5.34 13.82 -5 6 C-2.36 5.67 0.28 5.34 3 5 C2.505 4.54625 2.01 4.0925 1.5 3.625 C0 2 0 2 0 0 Z " fill="#3586C2" transform="translate(68,4)"/>
<path d="M0 0 C0.99 0.33 1.98 0.66 3 1 C4.08360564 3.7477143 4.95476895 6.35713622 5.75 9.1875 C6.09998047 10.32155273 6.09998047 10.32155273 6.45703125 11.47851562 C7.77063116 16.01318838 8.22580294 19.31354608 7 24 C6.03578125 24.33773437 5.0715625 24.67546875 4.078125 25.0234375 C2.80203525 25.47382212 1.52599624 25.92435053 0.25 26.375 C-0.38421875 26.59671875 -1.0184375 26.8184375 -1.671875 27.046875 C-3.45495581 27.67838279 -5.22784597 28.33844929 -7 29 C-7.69512695 29.23025879 -8.39025391 29.46051758 -9.10644531 29.69775391 C-11.95474757 31.65660438 -12.04585234 33.81550602 -12.75 37.125 C-12.99234375 38.22070312 -13.2346875 39.31640625 -13.484375 40.4453125 C-13.65453125 41.28835937 -13.8246875 42.13140625 -14 43 C-12.99622314 42.66677734 -11.99244629 42.33355469 -10.95825195 41.99023438 C-7.2240414 40.75276908 -3.48667511 39.52508622 0.25170898 38.30029297 C1.86749221 37.76941822 3.48241427 37.23591477 5.09643555 36.69970703 C7.42013235 35.92824256 9.74678927 35.16636774 12.07421875 34.40625 C12.79212082 34.16563843 13.51002289 33.92502686 14.24967957 33.67712402 C17.93705497 32.4834874 21.11592089 31.70861129 25 32 C25.33 32.99 25.66 33.98 26 35 C17.60851791 38.53667829 9.01736363 41.4055217 0.375 44.25 C-1.02483322 44.71325883 -2.4245735 45.17679857 -3.82421875 45.640625 C-7.21508246 46.76365159 -10.60718137 47.88289133 -14 49 C-14.05534912 49.64026123 -14.11069824 50.28052246 -14.16772461 50.94018555 C-14.42144165 53.8562154 -14.67942949 56.77185234 -14.9375 59.6875 C-15.02451172 60.69490234 -15.11152344 61.70230469 -15.20117188 62.74023438 C-15.28818359 63.71669922 -15.37519531 64.69316406 -15.46484375 65.69921875 C-15.543396 66.59471436 -15.62194824 67.49020996 -15.70288086 68.4128418 C-15.9980463 70.98298823 -16.45612236 73.47186549 -17 76 C-17.99 75.67 -18.98 75.34 -20 75 C-19.93192139 74.23445801 -19.86384277 73.46891602 -19.79370117 72.68017578 C-17.83074779 57.85048353 -17.83074779 57.85048353 -22.26171875 44.4375 C-25.09523719 42.33280374 -27.80396644 40.67614178 -30.94628906 39.10498047 C-34.80987177 37.02621497 -38.23503522 34.29882307 -41.75 31.6875 C-43.27472204 30.58671151 -44.80077762 29.48776791 -46.328125 28.390625 C-51.08431596 24.94869743 -55.8090161 21.46779185 -60.5 17.9375 C-61.22413086 17.4014917 -61.94826172 16.8654834 -62.69433594 16.31323242 C-63.36239258 15.80638916 -64.03044922 15.2995459 -64.71875 14.77734375 C-65.30591797 14.33640381 -65.89308594 13.89546387 -66.49804688 13.44116211 C-68.22041597 11.78850529 -69.05300723 10.17581477 -70 8 C-69.34 7.67 -68.68 7.34 -68 7 C-58.1019412 14.04958207 -48.24054464 21.1488255 -38.39355469 28.26953125 C-34.22190103 31.28551259 -30.04833232 34.29884216 -25.875 37.3125 C-24.35155429 38.41274905 -22.828116 39.51300838 -21.3046875 40.61328125 C-20.21414062 41.40089844 -19.12359375 42.18851563 -18 43 C-17.01 38.38 -16.02 33.76 -15 29 C-17.475 27.02 -17.475 27.02 -20 25 C-19.34 23.68 -18.68 22.36 -18 21 C-17.34 21.66 -16.68 22.32 -16 23 C-11.02803698 22.16306471 -7.07026121 21.03727825 -3 18 C-0.47052026 12.43215914 -0.31904911 6.02439783 0 0 Z " fill="#2D2D2D" transform="translate(77,62)"/>
<path d="M0 0 C3.50536691 1.33616154 6.76669207 2.87599071 10.0546875 4.6796875 C11.47201172 5.45505859 11.47201172 5.45505859 12.91796875 6.24609375 C13.89378906 6.78363281 14.86960937 7.32117188 15.875 7.875 C16.84308594 8.40480469 17.81117187 8.93460938 18.80859375 9.48046875 C23.90072097 12.27247864 28.96908001 15.09916312 34 18 C34 18.66 34 19.32 34 20 C32.9790625 20.27972656 31.958125 20.55945313 30.90625 20.84765625 C20.71008557 23.65508841 10.54971511 26.56888231 0.4140625 29.58813477 C-18.64232349 35.21161815 -18.64232349 35.21161815 -25.07714844 31.94580078 C-27.54979358 30.54304017 -29.9633232 29.06760094 -32.375 27.5625 C-33.68162598 26.76247559 -33.68162598 26.76247559 -35.01464844 25.94628906 C-37.68321058 24.30820993 -40.3425729 22.65607059 -43 21 C-43.82209961 20.49001465 -44.64419922 19.9800293 -45.49121094 19.45458984 C-50.00530204 16.65392378 -54.50789961 13.83579522 -59 11 C-58 9 -58 9 -56.00634766 8.31396484 C-54.7231665 8.01546631 -54.7231665 8.01546631 -53.4140625 7.7109375 C-52.01800781 7.38222656 -52.01800781 7.38222656 -50.59375 7.046875 C-49.6140625 6.82515625 -48.634375 6.6034375 -47.625 6.375 C-46.65304688 6.14554688 -45.68109375 5.91609375 -44.6796875 5.6796875 C-37.44103423 4 -37.44103423 4 -34 4 C-34.33 5.32 -34.66 6.64 -35 8 C-39.29 8.99 -43.58 9.98 -48 11 C-42.99819514 15.00144389 -37.98260357 18.04109969 -32.4375 21.1875 C-31.49197266 21.73341797 -30.54644531 22.27933594 -29.57226562 22.84179688 C-28.66025391 23.36193359 -27.74824219 23.88207031 -26.80859375 24.41796875 C-25.98157959 24.89000732 -25.15456543 25.3620459 -24.30249023 25.84838867 C-19.64366907 28.17854024 -17.07955204 28.01460605 -12.01953125 26.671875 C-10.85486328 26.36636719 -9.69019531 26.06085937 -8.49023438 25.74609375 C-7.27658203 25.41738281 -6.06292969 25.08867188 -4.8125 24.75 C-3.61818359 24.43675781 -2.42386719 24.12351562 -1.19335938 23.80078125 C5.28981963 22.08097262 11.66529569 20.20455875 18 18 C17.49025635 17.7326001 16.9805127 17.4652002 16.45532227 17.18969727 C14.15670784 15.9825377 11.85958995 14.77255777 9.5625 13.5625 C8.35883789 12.93118164 8.35883789 12.93118164 7.13085938 12.28710938 C6.36708984 11.88427734 5.60332031 11.48144531 4.81640625 11.06640625 C4.10943604 10.69459229 3.40246582 10.32277832 2.67407227 9.93969727 C1 9 1 9 0 8 C-0.14115161 5.32941149 -0.04247107 2.67567762 0 0 Z " fill="#D4D4D4" transform="translate(93,19)"/>
<path d="M0 0 C0 0.66 0 1.32 0 2 C0.66 2 1.32 2 2 2 C2.50333542 4.60356241 3.00279378 7.20776651 3.5 9.8125 C3.64308594 10.55048828 3.78617187 11.28847656 3.93359375 12.04882812 C4.50926281 15.07794391 5 17.909196 5 21 C-1.625 24 -1.625 24 -5 24 C-5.99 20.37 -6.98 16.74 -8 13 C-8.66 13.33 -9.32 13.66 -10 14 C-10.495 10.04 -10.495 10.04 -11 6 C-11.90242432 6.23710693 -12.80484863 6.47421387 -13.73461914 6.71850586 C-17.10898498 7.60311992 -20.48422709 8.48422812 -23.86010742 9.36303711 C-25.31619834 9.74283779 -26.77193496 10.12399971 -28.22729492 10.5065918 C-30.32897921 11.05883292 -32.43192313 11.60603503 -34.53515625 12.15234375 C-35.797229 12.48226318 -37.05930176 12.81218262 -38.35961914 13.15209961 C-41.91954533 13.98126088 -45.37835266 14.54091794 -49 15 C-48.67 17.97 -48.34 20.94 -48 24 C-48.99 23.67 -49.98 23.34 -51 23 C-51.04898438 23.78503906 -51.09796875 24.57007812 -51.1484375 25.37890625 C-51.22320312 26.42949219 -51.29796875 27.48007813 -51.375 28.5625 C-51.44460937 29.59503906 -51.51421875 30.62757812 -51.5859375 31.69140625 C-52.05527469 35.44167605 -52.50412028 38.50961398 -54 42 C-56.55549059 43.39418252 -58.39643328 44.18376721 -61.125 44.9375 C-61.78371094 45.14439453 -62.44242187 45.35128906 -63.12109375 45.56445312 C-64.73958237 46.0687648 -66.36894652 46.53793916 -68 47 C-69.21875 45.46484375 -69.21875 45.46484375 -70 43 C-68.95813784 40.33779988 -67.8756359 38.04412594 -66.5 35.5625 C-64.27509506 31.48397463 -62.21389804 27.68732571 -60.828125 23.234375 C-59.63227794 19.43886042 -58.63193733 17.00475813 -56 14 C-50.58893175 11.33195753 -44.49262882 10.5279244 -38.60107422 9.50048828 C-34.72764867 8.75517925 -31.0102254 7.61490875 -27.25 6.4375 C-21.57288927 4.72194495 -15.87601151 3.13702166 -10.125 1.6875 C-9.11614746 1.43021118 -9.11614746 1.43021118 -8.08691406 1.16772461 C-5.30353083 0.4783451 -2.88099422 0 0 0 Z " fill="#3D3D3D" transform="translate(128,39)"/>
<path d="M0 0 C5.67012107 2.12534489 10.60271376 5.22133205 15.75 8.375 C16.72066406 8.9525 17.69132812 9.53 18.69140625 10.125 C20.07392578 10.97191406 20.07392578 10.97191406 21.484375 11.8359375 C22.32709961 12.34688965 23.16982422 12.8578418 24.03808594 13.38427734 C26 15 26 15 26.89916992 16.95458984 C27.02568458 19.52103012 26.42711679 20.68544546 25.12890625 22.890625 C24.71962891 23.59960938 24.31035156 24.30859375 23.88867188 25.0390625 C23.2322168 26.13347656 23.2322168 26.13347656 22.5625 27.25 C21.9118457 28.36761719 21.9118457 28.36761719 21.24804688 29.5078125 C20.1763557 31.34499737 19.08960023 33.17337974 18 35 C16.32646866 34.35075809 14.66172551 33.6788892 13 33 C11.90042969 32.56429687 10.80085938 32.12859375 9.66796875 31.6796875 C2.33004164 27.87483641 2.33004164 27.87483641 0 24 C-1.67693907 16.16830839 -0.79182844 7.90797657 0 0 Z " fill="#BDBDBD" transform="translate(38,36)"/>
<path d="M0 0 C0.99 0.33 1.98 0.66 3 1 C3.33 6.94 3.66 12.88 4 19 C4.66 18.34 5.32 17.68 6 17 C10.06405122 17.32540103 12.89974062 18.92383746 16.3125 21.0625 C17.19550781 21.61035156 18.07851562 22.15820312 18.98828125 22.72265625 C19.65214844 23.14417969 20.31601563 23.56570312 21 24 C18.44221295 26.55778705 16.46700214 26.83368401 12.96875 27.7265625 C11.76605469 28.0359375 10.56335938 28.3453125 9.32421875 28.6640625 C8.06222656 28.98117188 6.80023438 29.29828125 5.5 29.625 C3.60701172 30.11226562 3.60701172 30.11226562 1.67578125 30.609375 C-7.69587054 33 -7.69587054 33 -10 33 C-10 32.34 -10 31.68 -10 31 C-8.02 30.34 -6.04 29.68 -4 29 C-4.33 28.34 -4.66 27.68 -5 27 C-4.34 27 -3.68 27 -3 27 C-3.00523682 26.38479492 -3.01047363 25.76958984 -3.01586914 25.13574219 C-3.03669371 22.34050524 -3.04967759 19.54528464 -3.0625 16.75 C-3.07087891 15.78191406 -3.07925781 14.81382813 -3.08789062 13.81640625 C-3.09111328 12.88183594 -3.09433594 11.94726562 -3.09765625 10.984375 C-3.10289307 10.12553711 -3.10812988 9.26669922 -3.11352539 8.38183594 C-3.00539986 6.11329256 -2.63582423 4.17368285 -2 2 C-1.34 2 -0.68 2 0 2 C0 1.34 0 0.68 0 0 Z " fill="#4593CE" transform="translate(84,12)"/>
<path d="M0 0 C2.19824219 1.18286133 2.19824219 1.18286133 4 3 C4.45410156 5.4519043 4.45410156 5.4519043 4.390625 8.32421875 C4.37773438 9.35224609 4.36484375 10.38027344 4.3515625 11.43945312 C4.31804687 12.51130859 4.28453125 13.58316406 4.25 14.6875 C4.23195313 15.77095703 4.21390625 16.85441406 4.1953125 17.97070312 C4.14813508 20.64802146 4.08232249 23.32356909 4 26 C3.21625 25.68417969 2.4325 25.36835937 1.625 25.04296875 C-3.15502088 23.14376403 -4.66613117 22.93322623 -10 24 C-10 16.41 -10 8.82 -10 1 C-6.43528609 -0.18823797 -3.7441664 -0.26274852 0 0 Z " fill="#26292B" transform="translate(77,12)"/>
<path d="M0 0 C1.11892213 3.3567664 1.27709592 5.66960914 0 9 C-2.45974026 10.34684801 -4.59011236 11.24647436 -7.21875 12.140625 C-8.00431274 12.42657532 -8.78987549 12.71252563 -9.59924316 13.00714111 C-11.38892831 13.65646181 -13.18196001 14.29660359 -14.97753906 14.92944336 C-18.24714193 16.08753775 -21.50282568 17.27997219 -24.7578125 18.47851562 C-31.67673204 21.02263468 -38.60686898 23.53465373 -45.53967285 26.04058838 C-48.16882616 26.99203769 -50.79665702 27.94711148 -53.4245224 28.90211105 C-56.60499344 30.05712696 -59.7869473 31.2080326 -62.96875 32.359375 C-64.70964905 32.99223419 -64.70964905 32.99223419 -66.48571777 33.63787842 C-72.9415543 35.96648556 -79.40665186 38.09399012 -86 40 C-86 35.05 -86 30.1 -86 25 C-85.67 25 -85.34 25 -85 25 C-84.67 28.63 -84.34 32.26 -84 36 C-82.14454683 35.39979594 -80.29070099 34.79462229 -78.4375 34.1875 C-77.40496094 33.85105469 -76.37242188 33.51460937 -75.30859375 33.16796875 C-72.43258318 32.15270646 -69.66410566 30.99831637 -66.86592102 29.79023743 C-58.18442068 26.11352956 -49.221525 23.05689745 -40.31573486 19.97558594 C-36.14736905 18.53268058 -31.98477333 17.07347537 -27.82226562 15.61376953 C-25.66838848 14.86346505 -23.51173014 14.12110287 -21.35253906 13.38623047 C-18.19836642 12.31036293 -15.05585719 11.20516236 -11.9140625 10.09375 C-10.94651031 9.77168579 -9.97895813 9.44962158 -8.98208618 9.11779785 C-3.55666032 7.29298731 -3.55666032 7.29298731 -0.38037109 2.74414062 C-0.1920874 1.38579102 -0.1920874 1.38579102 0 0 Z " fill="#BEBEBE" transform="translate(147,99)"/>
<path d="M0 0 C0.33 0 0.66 0 1 0 C0.94650391 0.54825439 0.89300781 1.09650879 0.83789062 1.66137695 C-0.18887535 12.37689706 -0.18887535 12.37689706 3.53710938 22.04296875 C7.66825484 25.8582774 12.62988471 29.22609219 18 31 C20.89809764 30.91449008 20.89809764 30.91449008 23 30 C22.41892368 33.7602985 21.34800504 36.53035032 19.4375 39.8125 C18.98246094 40.60269531 18.52742188 41.39289063 18.05859375 42.20703125 C17.70925781 42.79871094 17.35992187 43.39039063 17 44 C14.03824877 43.38722388 12.61941217 42.74627478 10 41 C10 39.68 10 38.36 10 37 C7.90629803 35.13336148 5.90443189 33.5412775 3.625 31.9375 C-2.77718878 27.33421683 -2.77718878 27.33421683 -5 24 C-4.35256836 23.60578857 -3.70513672 23.21157715 -3.03808594 22.80541992 C-0.81511196 21.18335471 -0.81511196 21.18335471 -0.45410156 18.73168945 C-0.4331543 17.86761475 -0.41220703 17.00354004 -0.390625 16.11328125 C-0.35839844 15.17548828 -0.32617188 14.23769531 -0.29296875 13.27148438 C-0.27169922 11.80678711 -0.27169922 11.80678711 -0.25 10.3125 C-0.22035156 9.32443359 -0.19070312 8.33636719 -0.16015625 7.31835938 C-0.08944508 4.87882404 -0.03675735 2.44024475 0 0 Z " fill="#272727" transform="translate(36,39)"/>
<path d="M0 0 C-0.33 1.32 -0.66 2.64 -1 4 C-5.29 4.99 -9.58 5.98 -14 7 C-8.99819514 11.00144389 -3.98260357 14.04109969 1.5625 17.1875 C2.50802734 17.73341797 3.45355469 18.27933594 4.42773438 18.84179688 C5.33974609 19.36193359 6.25175781 19.88207031 7.19140625 20.41796875 C8.01842041 20.89000732 8.84543457 21.3620459 9.69750977 21.84838867 C11.83698921 22.91846868 13.6739016 23.50552728 16 24 C16.99 24.33 17.98 24.66 19 25 C17.02 26.65 15.04 28.3 13 30 C0.21881033 22.51013802 -12.49178929 14.93859218 -25 7 C-24 5 -24 5 -22.00634766 4.31396484 C-20.7231665 4.01546631 -20.7231665 4.01546631 -19.4140625 3.7109375 C-18.48335937 3.49179687 -17.55265625 3.27265625 -16.59375 3.046875 C-15.6140625 2.82515625 -14.634375 2.6034375 -13.625 2.375 C-12.65304688 2.14554688 -11.68109375 1.91609375 -10.6796875 1.6796875 C-3.44103423 0 -3.44103423 0 0 0 Z " fill="#D0D0D0" transform="translate(59,23)"/>
<path d="M0 0 C0.33 0 0.66 0 1 0 C1.28381864 3.26882314 1.52117491 6.53940391 1.75 9.8125 C1.83121094 10.74126953 1.91242187 11.67003906 1.99609375 12.62695312 C2.08310547 13.9659668 2.08310547 13.9659668 2.171875 15.33203125 C2.2347168 16.15421143 2.29755859 16.9763916 2.36230469 17.82348633 C2 20 2 20 -0.01074219 21.79174805 C-0.66719727 22.19047119 -1.32365234 22.58919434 -2 23 C-0.06401165 24.62683052 1.87370969 26.25151469 3.8125 27.875 C4.35970703 28.33519531 4.90691406 28.79539062 5.47070312 29.26953125 C7.91945661 31.31757962 10.34078325 33.22718883 13 35 C12.67 35.99 12.34 36.98 12 38 C6.67620604 35.05165216 1.63557367 31.82611336 -3.375 28.375 C-4.09816406 27.88515625 -4.82132813 27.3953125 -5.56640625 26.890625 C-6.25347656 26.41882813 -6.94054687 25.94703125 -7.6484375 25.4609375 C-8.26895996 25.03603027 -8.88948242 24.61112305 -9.52880859 24.17333984 C-11 23 -11 23 -12 21 C-11.01 19.515 -11.01 19.515 -10 18 C-9.67 18.33 -9.34 18.66 -9 19 C-8.76289307 18.45996338 -8.52578613 17.91992676 -8.28149414 17.36352539 C-7.21090074 14.92878456 -6.13674971 12.49562968 -5.0625 10.0625 C-4.68931641 9.21236328 -4.31613281 8.36222656 -3.93164062 7.48632812 C-3.57392578 6.67744141 -3.21621094 5.86855469 -2.84765625 5.03515625 C-2.3527771 3.91185913 -2.3527771 3.91185913 -1.84790039 2.76586914 C-1 1 -1 1 0 0 Z " fill="#373737" transform="translate(34,41)"/>
<path d="M0 0 C0.99 0 1.98 0 3 0 C2.88519969 2.85490236 2.75847036 5.7084588 2.625 8.5625 C2.57859375 9.76229492 2.57859375 9.76229492 2.53125 10.98632812 C2.29156157 15.87996694 2.05069782 20.4884648 0 25 C-2.55549059 26.39418252 -4.39643328 27.18376721 -7.125 27.9375 C-7.78371094 28.14439453 -8.44242187 28.35128906 -9.12109375 28.56445312 C-10.73958237 29.0687648 -12.36894652 29.53793916 -14 30 C-12.72808985 25.98381149 -11.25481537 22.21540255 -9.43359375 18.41796875 C-8.94826172 17.40412109 -8.46292969 16.39027344 -7.96289062 15.34570312 C-7.45951172 14.30349609 -6.95613281 13.26128906 -6.4375 12.1875 C-5.93025391 11.12595703 -5.42300781 10.06441406 -4.90039062 8.97070312 C-1.13585283 1.13585283 -1.13585283 1.13585283 0 0 Z " fill="#E0E0E0" transform="translate(74,56)"/>
<path d="M0 0 C0.50333542 2.60356241 1.00279378 5.20776651 1.5 7.8125 C1.64308594 8.55048828 1.78617188 9.28847656 1.93359375 10.04882812 C2.50926281 13.07794391 3 15.909196 3 19 C-3.625 22 -3.625 22 -7 22 C-7.12117188 21.2265625 -7.24234375 20.453125 -7.3671875 19.65625 C-8.32852312 13.68117941 -9.42659541 7.84407421 -11 2 C-9.5422647 1.664061 -8.08378894 1.33133376 -6.625 1 C-5.40683594 0.7215625 -5.40683594 0.7215625 -4.1640625 0.4375 C-2 0 -2 0 0 0 Z " fill="#E4E4E4" transform="translate(130,41)"/>
<path d="M0 0 C0.99 0.66 1.98 1.32 3 2 C5.13270995 1.83655098 5.13270995 1.83655098 7.375 1.3125 C9.76953125 0.9609375 9.76953125 0.9609375 12 1 C15.0625 3.4375 15.0625 3.4375 17 6 C16.67 6.33 16.34 6.66 16 7 C15.76472227 9.34987262 15.58613583 11.70556039 15.4375 14.0625 C15.35371094 15.35285156 15.26992187 16.64320312 15.18359375 17.97265625 C15.09271484 19.47119141 15.09271484 19.47119141 15 21 C13 19 13 19 12.76953125 16.46875 C12.78371094 15.4890625 12.79789063 14.509375 12.8125 13.5 C12.81894531 12.5203125 12.82539062 11.540625 12.83203125 10.53125 C13 8 13 8 14 6 C12.75283203 6.14308594 12.75283203 6.14308594 11.48046875 6.2890625 C10.39378906 6.39992188 9.30710937 6.51078125 8.1875 6.625 C6.56908203 6.79902344 6.56908203 6.79902344 4.91796875 6.9765625 C2 7 2 7 -1 5 C-3.32387947 4.60612212 -5.65793749 4.26513915 -8 4 C-8 4.66 -8 5.32 -8 6 C-7.01 6.33 -6.02 6.66 -5 7 C-5 7.66 -5 8.32 -5 9 C-7.97 9.66 -10.94 10.32 -14 11 C-14.33 12.98 -14.66 14.96 -15 17 C-15.99 17.33 -16.98 17.66 -18 18 C-18 14.7 -18 11.4 -18 8 C-16.35 7.67 -14.7 7.34 -13 7 C-13 5.35 -13 3.7 -13 2 C-8.5153968 0.56492698 -4.76549564 -0.43322688 0 0 Z " fill="#2D3236" transform="translate(76,0)"/>
<path d="M0 0 C0.33 0 0.66 0 1 0 C1.02698189 1.62490954 1.04638757 3.24994633 1.0625 4.875 C1.07410156 5.77992187 1.08570312 6.68484375 1.09765625 7.6171875 C1 10 1 10 0 12 C0.99 12.33 1.98 12.66 3 13 C2.34 13 1.68 13 1 13 C0.94286624 16.14571767 0.92719804 18.10734906 2 21 C4.70909281 23.44528322 7.79113756 24.9226031 11.0625 26.5 C11.91650391 26.94085938 12.77050781 27.38171875 13.65039062 27.8359375 C15.75501851 28.91764569 17.86960305 29.97023928 20 31 C18 33 18 33 16.0546875 33.1953125 C14.03645833 33.13020833 12.01822917 33.06510417 10 33 C10.66 32.01 11.32 31.02 12 30 C10.25877451 28.96427104 8.50663405 27.9468748 6.75 26.9375 C5.77546875 26.36902344 4.8009375 25.80054687 3.796875 25.21484375 C1.16120571 23.79330036 1.16120571 23.79330036 -1.234375 24.25390625 C-2.50884514 24.79245447 -3.76248367 25.38124183 -5 26 C-5 19.73 -5 13.46 -5 7 C-7.475 6.01 -7.475 6.01 -10 5 C-10 4.34 -10 3.68 -10 3 C-6.535 2.505 -6.535 2.505 -3 2 C-2.67 5.63 -2.34 9.26 -2 13 C-1.93941406 12.14535156 -1.87882812 11.29070313 -1.81640625 10.41015625 C-1.73261719 9.30542969 -1.64882812 8.20070313 -1.5625 7.0625 C-1.48128906 5.96035156 -1.40007812 4.85820312 -1.31640625 3.72265625 C-1 1 -1 1 0 0 Z " fill="#222222" transform="translate(92,6)"/>
<path d="M0 0 C6.42222222 -0.25185185 6.42222222 -0.25185185 9.4375 1.0625 C13.18177507 2.43235673 16.07401999 1.57924295 20 1 C20.66 1.33 21.32 1.66 22 2 C22 2.66 22 3.32 22 4 C19.29120665 5.35439668 16.99066732 5.06501451 14 5 C14 5.66 14 6.32 14 7 C14.66 7 15.32 7 16 7 C16 7.99 16 8.98 16 10 C15.34 10 14.68 10 14 10 C13.67 11.32 13.34 12.64 13 14 C12.7525 13.38125 12.505 12.7625 12.25 12.125 C10.79371361 9.64931313 9.62187494 9.04874998 7 8 C7 9.65 7 11.3 7 13 C6.67 13 6.34 13 6 13 C6 11.35 6 9.7 6 8 C3.69 8.33 1.38 8.66 -1 9 C-1 11.97 -1 14.94 -1 18 C-1.33 18 -1.66 18 -2 18 C-2 15.03 -2 12.06 -2 9 C-2.66 9 -3.32 9 -4 9 C-4 15.6 -4 22.2 -4 29 C-4.33 29 -4.66 29 -5 29 C-5 21.41 -5 13.82 -5 6 C-2.36 5.67 0.28 5.34 3 5 C2.2575 4.319375 2.2575 4.319375 1.5 3.625 C0 2 0 2 0 0 Z " fill="#408CC5" transform="translate(68,4)"/>
<path d="M0 0 C0.99 0.495 0.99 0.495 2 1 C2.55064021 2.92088718 3.09400369 4.84421012 3.59716797 6.77807617 C6.80840262 18.62986178 12.8250007 25.16985221 22 33 C22.77085938 33.69351563 23.54171875 34.38703125 24.3359375 35.1015625 C25.55930763 36.1951056 26.79528612 37.2748078 28.046875 38.3359375 C30.57445208 40.48943318 33.03463364 42.71316108 35.5 44.9375 C36.3559375 45.70964844 37.211875 46.48179688 38.09375 47.27734375 C39.03734375 48.13005859 39.03734375 48.13005859 40 49 C39.505 49.99 39.505 49.99 39 51 C38.10539062 50.2265625 37.21078125 49.453125 36.2890625 48.65625 C28.14053395 41.62695836 28.14053395 41.62695836 19.8125 34.8125 C19.03519531 34.19246094 18.25789063 33.57242188 17.45703125 32.93359375 C15.65390238 31.51459726 13.83668891 30.11345051 12.01171875 28.72265625 C10.52091797 27.56056641 10.52091797 27.56056641 9 26.375 C8.0925 25.68148437 7.185 24.98796875 6.25 24.2734375 C1.08011538 19.04969991 0.12122209 9.51544065 -0.125 2.375 C-0.08375 1.59125 -0.0425 0.8075 0 0 Z " fill="#979797" transform="translate(7,79)"/>
<path d="M0 0 C0.495 0.495 0.495 0.495 1 1 C2.32 1 3.64 1 5 1 C5 1.66 5 2.32 5 3 C1.06718764 4.13179005 -2.86763894 5.25631402 -6.80419922 6.375 C-8.30883495 6.80327079 -9.81304664 7.23303339 -11.31689453 7.6640625 C-13.68915664 8.34310606 -16.06314283 9.01582303 -18.4375 9.6875 C-19.18177246 9.90172607 -19.92604492 10.11595215 -20.69287109 10.33666992 C-25.12393384 11.58275112 -29.42854352 12.45190706 -34 13 C-29.12936707 5.97392402 -24.62811187 4.38206324 -16.4375 2.5625 C-15.40947266 2.30791016 -14.38144531 2.05332031 -13.32226562 1.79101562 C-8.81277084 0.70674954 -4.66492536 -0.27008269 0 0 Z " fill="#D3D3D3" transform="translate(107,40)"/>
<path d="M0 0 C3.09423168 3.09423168 3.93706005 6.5523812 4.125 10.875 C4.08375 11.57625 4.0425 12.2775 4 13 C4.721875 12.67 5.44375 12.34 6.1875 12 C9.23099042 10.91787007 10.81512754 10.46918792 14 11 C16.53724148 12.42488092 18.88818739 13.99164795 21 16 C21 16.66 21 17.32 21 18 C18.54285453 18.83698386 16.08441143 19.66972424 13.625 20.5 C12.92632812 20.73847656 12.22765625 20.97695312 11.5078125 21.22265625 C6.2265625 23 6.2265625 23 4 23 C1.59847776 15.32721195 0.40621064 8.02616194 0 0 Z " fill="#292929" transform="translate(119,50)"/>
<path d="M0 0 C6.02083853 2.22343415 11.40387592 5.57601231 16.9128418 8.82202148 C18.81808671 9.94078051 20.73202755 11.04358278 22.64648438 12.14648438 C23.85473449 12.85580449 25.06243708 13.56605828 26.26953125 14.27734375 C27.36885986 14.91921631 28.46818848 15.56108887 29.60083008 16.22241211 C30.39255615 16.80901611 31.18428223 17.39562012 32 18 C32 18.99 32 19.98 32 21 C30.68 21 29.36 21 28 21 C25.36 25.95 22.72 30.9 20 36 C19.01 36 18.02 36 17 36 C18.35217847 31.20591271 20.46192366 27.34282679 23.07421875 23.1484375 C24.16280844 21.08882312 24.16280844 21.08882312 23.83081055 19.04980469 C22.69117787 16.2380633 21.24237653 15.55923115 18.6328125 14.0546875 C17.74722656 13.53519531 16.86164062 13.01570313 15.94921875 12.48046875 C15.01722656 11.95066406 14.08523437 11.42085937 13.125 10.875 C11.29410981 9.81017265 9.46337409 8.74507966 7.6328125 7.6796875 C6.81699707 7.21288574 6.00118164 6.74608398 5.16064453 6.26513672 C3.40401459 5.23656538 1.69372983 4.12915322 0 3 C0 2.01 0 1.02 0 0 Z " fill="#303030" transform="translate(40,34)"/>
<path d="M0 0 C0.33 0 0.66 0 1 0 C1 2.64 1 5.28 1 8 C1.72018311 8.27183105 2.44036621 8.54366211 3.18237305 8.82373047 C5.96034577 9.98344562 8.47572536 11.31728947 11.08203125 12.8203125 C12.01337891 13.35527344 12.94472656 13.89023437 13.90429688 14.44140625 C14.86400391 14.99699219 15.82371094 15.55257813 16.8125 16.125 C17.79154297 16.68832031 18.77058594 17.25164063 19.77929688 17.83203125 C22.18789555 19.21844415 24.59471395 20.60785055 27 22 C26.67 22.99 26.34 23.98 26 25 C19.97762503 24.54160401 15.80960709 22.64219308 10.625 19.625 C9.54025391 19.02558594 9.54025391 19.02558594 8.43359375 18.4140625 C3.12963924 15.38891771 3.12963924 15.38891771 2 12 C1.01 12 0.02 12 -1 12 C-0.67 8.04 -0.34 4.08 0 0 Z " fill="#3D3D3D" transform="translate(93,6)"/>
<path d="M0 0 C-0.38671875 2.34375 -0.38671875 2.34375 -2 5 C-5.16575063 6.35055197 -8.43532861 6.90024863 -11.8125 7.5 C-12.71548828 7.69335938 -13.61847656 7.88671875 -14.54882812 8.0859375 C-21.20329121 9.35717953 -21.20329121 9.35717953 -25.13671875 7.59375 C-25.75160156 7.0678125 -26.36648437 6.541875 -27 6 C-22.67269482 3.69851563 -18.21701552 2.56112176 -13.5 1.3125 C-12.64535156 1.07466797 -11.79070313 0.83683594 -10.91015625 0.59179688 C-10.08386719 0.37201172 -9.25757812 0.15222656 -8.40625 -0.07421875 C-7.28186523 -0.37718872 -7.28186523 -0.37718872 -6.13476562 -0.6862793 C-3.78907466 -1.03099715 -2.23875677 -0.72417316 0 0 Z " fill="#484848" transform="translate(58,19)"/>
<path d="M0 0 C0 0.99 0 1.98 0 3 C-4.455 3.495 -4.455 3.495 -9 4 C-8.69964844 4.74765625 -8.39929688 5.4953125 -8.08984375 6.265625 C-7.70957031 7.25046875 -7.32929687 8.2353125 -6.9375 9.25 C-6.55464844 10.22453125 -6.17179687 11.1990625 -5.77734375 12.203125 C-4.98886213 15.04007395 -4.97562188 16.29409552 -6 19 C-6.66 17.02 -7.32 15.04 -8 13 C-8.99 13.495 -8.99 13.495 -10 14 C-10.33 11.36 -10.66 8.72 -11 6 C-16.61 7.32 -22.22 8.64 -28 10 C-28 9.34 -28 8.68 -28 8 C-28.66 7.67 -29.32 7.34 -30 7 C-25.56404241 5.82741384 -21.12599432 4.66294388 -16.6875 3.5 C-15.42486328 3.16613281 -14.16222656 2.83226562 -12.86132812 2.48828125 C-11.04858398 2.01455078 -11.04858398 2.01455078 -9.19921875 1.53125 C-7.52605591 1.09135742 -7.52605591 1.09135742 -5.8190918 0.64257812 C-3 0 -3 0 0 0 Z " fill="#454545" transform="translate(128,39)"/>
<path d="M0 0 C0 0.99 0 1.98 0 3 C-0.66 3 -1.32 3 -2 3 C-2 10.59 -2 18.18 -2 26 C-6.82949142 21.17050858 -5.69373841 15.6765026 -6 9 C-10.455 19.395 -10.455 19.395 -15 30 C-15.33 30 -15.66 30 -16 30 C-16.80773868 23.65500013 -13.95802284 18.84645118 -11.25 13.3125 C-10.8065625 12.36310547 -10.363125 11.41371094 -9.90625 10.43554688 C-4.88418923 0 -4.88418923 0 0 0 Z " fill="#4A4A4A" transform="translate(40,33)"/>
<path d="M0 0 C0.33 0 0.66 0 1 0 C1 5.94 1 11.88 1 18 C-3.95 19.485 -3.95 19.485 -9 21 C-6.76686274 13.55620912 -3.59727921 6.88023305 0 0 Z " fill="#DCDCDC" transform="translate(34,41)"/>
<path d="M0 0 C0.66 0.66 1.32 1.32 2 2 C2.66 1.67 3.32 1.34 4 1 C4 8.92 4 16.84 4 25 C2.68 23.68 1.36 22.36 0 21 C0 20.34 0 19.68 0 19 C-0.66 18.67 -1.32 18.34 -2 18 C-1.34 16.68 -0.68 15.36 0 14 C-1.65 14 -3.3 14 -5 14 C-4.01 13.67 -3.02 13.34 -2 13 C-2 12.34 -2 11.68 -2 11 C-2.66 10.67 -3.32 10.34 -4 10 C-3.01 9.67 -2.02 9.34 -1 9 C-0.67 6.03 -0.34 3.06 0 0 Z " fill="#252A2E" transform="translate(59,9)"/>
<path d="M0 0 C3.54290622 1.23589752 6.48047334 2.98813085 9.6875 4.9375 C8.35533496 7.60183008 7.21598372 7.68197159 4.4375 8.625 C0.83499309 9.77412501 -1.64367789 10.2393401 -5.3125 8.9375 C-5.6425 6.9575 -5.9725 4.9775 -6.3125 2.9375 C-4.14177882 0.92757299 -3.01850541 -0.08158123 0 0 Z " fill="#388AC7" transform="translate(92.3125,29.0625)"/>
<path d="M0 0 C1.32 0.66 2.64 1.32 4 2 C3.38367054 6.95998472 1.20164371 10.93671966 -1.0625 15.3125 C-1.62807617 16.42334961 -1.62807617 16.42334961 -2.20507812 17.55664062 C-3.13128157 19.37387522 -4.06490629 21.18732404 -5 23 C-5.33 22.34 -5.66 21.68 -6 21 C-5.0625 18.875 -5.0625 18.875 -4 17 C-4.66 17 -5.32 17 -6 17 C-5.49487476 10.77012202 -2.67395877 5.54525767 0 0 Z " fill="#D6D6D6" transform="translate(31,31)"/>
<path d="M0 0 C-1.87383903 0.79441072 -3.74912886 1.58539974 -5.625 2.375 C-7.19121094 3.03628906 -7.19121094 3.03628906 -8.7890625 3.7109375 C-11.82903202 4.93136322 -14.88205905 5.9981391 -18 7 C-17.855625 7.94101562 -17.71125 8.88203125 -17.5625 9.8515625 C-17.376875 11.09679688 -17.19125 12.34203125 -17 13.625 C-16.814375 14.85476562 -16.62875 16.08453125 -16.4375 17.3515625 C-16.04597484 20.6166027 -15.91919076 23.71712451 -16 27 C-18.01078066 23.49424762 -18.79280998 20.00069215 -19.625 16.0625 C-20.01558594 14.25458984 -20.01558594 14.25458984 -20.4140625 12.41015625 C-20.91307139 9.50592451 -21.12243178 6.93279765 -21 4 C-17.87808127 3.13428401 -14.75206694 2.28441396 -11.625 1.4375 C-10.73554687 1.19064453 -9.84609375 0.94378906 -8.9296875 0.68945312 C-8.07890625 0.46064453 -7.228125 0.23183594 -6.3515625 -0.00390625 C-5.56604004 -0.21861572 -4.78051758 -0.4333252 -3.97119141 -0.65454102 C-2 -1 -2 -1 0 0 Z " fill="#BDBDBD" transform="translate(100,50)"/>
<path d="M0 0 C-4.27670806 2.26591344 -8.65778489 3.43554214 -13.3125 4.6875 C-14.55676758 5.04424805 -14.55676758 5.04424805 -15.82617188 5.40820312 C-20.99013474 6.79803054 -24.76599519 7.16546666 -30 6 C-25.88474556 3.83943391 -21.70326111 2.58953811 -17.25 1.3125 C-16.4765625 1.07466797 -15.703125 0.83683594 -14.90625 0.59179688 C-9.50943947 -0.95208936 -5.52129794 -1.0399705 0 0 Z " fill="#383A3B" transform="translate(106,39)"/>
<path d="M0 0 C1.32441496 3.97324489 0.29663742 5.05734462 -1.52734375 8.76171875 C-2.07197266 9.87998047 -2.61660156 10.99824219 -3.17773438 12.15039062 C-3.75845703 13.31763672 -4.33917969 14.48488281 -4.9375 15.6875 C-5.51435547 16.86634766 -6.09121094 18.04519531 -6.68554688 19.25976562 C-8.11494221 22.17762221 -9.55338558 25.09065202 -11 28 C-11.99 28 -12.98 28 -14 28 C-12.50069616 23.053843 -10.44811735 18.59441796 -8.125 14 C-7.78597656 13.31421875 -7.44695312 12.6284375 -7.09765625 11.921875 C-4.99269079 7.72795142 -2.68310976 3.85020235 0 0 Z " fill="#373737" transform="translate(72,56)"/>
<path d="M0 0 C0.33 0.33 0.66 0.66 1 1 C2.32 1 3.64 1 5 1 C5 1.66 5 2.32 5 3 C4.05898437 3.26554687 3.11796875 3.53109375 2.1484375 3.8046875 C0.90320313 4.15789063 -0.34203125 4.51109375 -1.625 4.875 C-3.46964844 5.39707031 -3.46964844 5.39707031 -5.3515625 5.9296875 C-7.66708878 6.60897465 -9.969646 7.33564669 -12.25 8.125 C-15.29747596 9.09465144 -17.82154339 9.15135508 -21 9 C-20 7 -20 7 -16.83984375 5.9296875 C-15.54126339 5.57008063 -14.24033915 5.21885784 -12.9375 4.875 C-12.27427734 4.69324219 -11.61105469 4.51148438 -10.92773438 4.32421875 C-9.28708521 3.87569596 -7.64377551 3.43692614 -6 3 C-6.33 2.34 -6.66 1.68 -7 1 C-4.51588385 -0.24205807 -2.74800896 -0.14092354 0 0 Z " fill="#E9E9E9" transform="translate(107,40)"/>
<path d="M0 0 C-2.55778705 2.55778705 -4.53299786 2.83368401 -8.03125 3.7265625 C-9.83529297 4.190625 -9.83529297 4.190625 -11.67578125 4.6640625 C-12.93777344 4.98117188 -14.19976562 5.29828125 -15.5 5.625 C-16.76199219 5.94984375 -18.02398437 6.2746875 -19.32421875 6.609375 C-28.69587054 9 -28.69587054 9 -31 9 C-31 8.34 -31 7.68 -31 7 C-26.67213905 5.6484421 -22.33722301 4.32118486 -18 3 C-17.36465332 2.8026123 -16.72930664 2.60522461 -16.07470703 2.40185547 C-14.19866976 1.82052793 -12.31811172 1.25385421 -10.4375 0.6875 C-9.30183594 0.34074219 -8.16617188 -0.00601563 -6.99609375 -0.36328125 C-4.12286777 -0.9738886 -2.7025496 -1.02419361 0 0 Z " fill="#C0D8E8" transform="translate(105,36)"/>
<path d="M0 0 C5.74548634 0.46585024 9.55497444 2.07098434 14.4375 5.0625 C15.07365234 5.43955078 15.70980469 5.81660156 16.36523438 6.20507812 C17.91632902 7.12640502 19.45907343 8.06176593 21 9 C19 11 19 11 17.0546875 11.1953125 C15.03645833 11.13020833 13.01822917 11.06510417 11 11 C11.66 10.01 12.32 9.02 13 8 C8.71 5.69 4.42 3.38 0 1 C0 0.67 0 0.34 0 0 Z " fill="#2E3133" transform="translate(91,28)"/>
<path d="M0 0 C0.66 0.33 1.32 0.66 2 1 C-0.97 5.95 -0.97 5.95 -4 11 C-7.83616676 9.4655333 -10.49393561 8.15341734 -13.8125 5.875 C-14.60269531 5.33617188 -15.39289062 4.79734375 -16.20703125 4.2421875 C-16.79871094 3.83226562 -17.39039063 3.42234375 -18 3 C-16.1875 2.3828125 -16.1875 2.3828125 -14 2 C-11.96166576 3.2739589 -9.96147874 4.61061923 -8 6 C-5.77397385 6.76939681 -5.77397385 6.76939681 -4 7 C-3.71125 6.21625 -3.4225 5.4325 -3.125 4.625 C-2 2 -2 2 0 0 Z " fill="#A0A0A0" transform="translate(60,60)"/>
<path d="M0 0 C0.99 0.66 1.98 1.32 3 2 C3.328125 4.28515625 3.328125 4.28515625 3.25 7.0625 C3.22421875 8.03960937 3.1984375 9.01671875 3.171875 10.0234375 C2.93957978 14.04636835 2.52399191 18.00456171 2 22 C1.67 22 1.34 22 1 22 C1 18.7 1 15.4 1 12 C0.34 12 -0.32 12 -1 12 C-3.32528287 9.67471713 -3.29511025 9.15334102 -3.3125 6 C-3.32925781 5.29875 -3.34601563 4.5975 -3.36328125 3.875 C-3.24339844 3.25625 -3.12351563 2.6375 -3 2 C-2.01 1.34 -1.02 0.68 0 0 Z " fill="#5C5C5C" transform="translate(151,87)"/>
<path d="M0 0 C1 3 1 3 0.0625 5.1875 C-0.4634375 6.0846875 -0.4634375 6.0846875 -1 7 C-0.17242187 7.36738281 -0.17242187 7.36738281 0.671875 7.7421875 C3.47639491 9.25738114 5.78103123 11.11084126 8.25 13.125 C9.14203125 13.84945312 10.0340625 14.57390625 10.953125 15.3203125 C11.62859375 15.87460938 12.3040625 16.42890625 13 17 C12.67 17.66 12.34 18.32 12 19 C9.70367877 17.40216813 7.41300477 15.79716285 5.125 14.1875 C4.47402344 13.73568359 3.82304687 13.28386719 3.15234375 12.81835938 C2.52714844 12.37685547 1.90195313 11.93535156 1.2578125 11.48046875 C0.39373779 10.87561646 0.39373779 10.87561646 -0.48779297 10.25854492 C-2 9 -2 9 -4 6 C-2.68 4.02 -1.36 2.04 0 0 Z " fill="#A1A1A1" transform="translate(10,60)"/>
<path d="M0 0 C0 0.66 0 1.32 0 2 C-6.64558134 4.60900601 -12.88515313 5.6143354 -20 6 C-20 5.34 -20 4.68 -20 4 C-17.79471728 3.32331051 -15.58561391 2.65906502 -13.375 2 C-12.14523438 1.62875 -10.91546875 1.2575 -9.6484375 0.875 C-6.26153174 0.06272281 -3.46145571 -0.17041013 0 0 Z " fill="#3D3D3D" transform="translate(100,47)"/>
<path d="M0 0 C0.99 1.485 0.99 1.485 2 3 C1.67 3.33 1.34 3.66 1 4 C0.76472227 6.34987262 0.58613583 8.70556039 0.4375 11.0625 C0.35371094 12.35285156 0.26992187 13.64320312 0.18359375 14.97265625 C0.12300781 15.97167969 0.06242187 16.97070312 0 18 C-2 16 -2 16 -2.23046875 13.46875 C-2.21628906 12.4890625 -2.20210938 11.509375 -2.1875 10.5 C-2.17783203 9.03046875 -2.17783203 9.03046875 -2.16796875 7.53125 C-2 5 -2 5 -1 3 C-2.32 2.67 -3.64 2.34 -5 2 C-5 1.34 -5 0.68 -5 0 C-6.32 -0.33 -7.64 -0.66 -9 -1 C-5.38792253 -2.33780647 -3.37254128 -1.77502172 0 0 Z " fill="#676767" transform="translate(91,3)"/>
<path d="M0 0 C-0.33 1.32 -0.66 2.64 -1 4 C-9.64850345 6.49194167 -9.64850345 6.49194167 -14 5 C-14.99 4.34 -15.98 3.68 -17 3 C-14.73000175 2.49622232 -12.45896997 1.99709981 -10.1875 1.5 C-8.29064453 1.08234375 -8.29064453 1.08234375 -6.35546875 0.65625 C-3 0 -3 0 0 0 Z " fill="#C1C1C1" transform="translate(59,23)"/>
<path d="M0 0 C0.33 0 0.66 0 1 0 C1.44856563 12.38539554 1.44856563 12.38539554 -1 17 C-4.24096 18.50243179 -7.50145486 19.32223756 -11 20 C-7.3898051 16.13193403 -7.3898051 16.13193403 -4.96875 15.3125 C-2.64611785 14.05909538 -2.64611785 14.05909538 -1.953125 10.7421875 C-1.60507813 8.82792969 -1.60507813 8.82792969 -1.25 6.875 C-1.00765625 5.59367187 -0.7653125 4.31234375 -0.515625 2.9921875 C-0.34546875 2.00476563 -0.1753125 1.01734375 0 0 Z " fill="#A1A1A1" transform="translate(75,64)"/>
<path d="M0 0 C-0.66 1.65 -1.32 3.3 -2 5 C-4.31 5.33 -6.62 5.66 -9 6 C-9 5.01 -9 4.02 -9 3 C-10.98 3 -12.96 3 -15 3 C-12.41464321 1.27642881 -10.96188386 0.55264982 -8.0625 -0.1875 C-7.39347656 -0.36667969 -6.72445312 -0.54585937 -6.03515625 -0.73046875 C-3.75319112 -1.03268678 -2.17973341 -0.68756692 0 0 Z " fill="#535353" transform="translate(58,19)"/>
<path d="M0 0 C0.33 0 0.66 0 1 0 C1.02706445 2.89589652 1.04687029 5.79153795 1.0625 8.6875 C1.07087891 9.50412109 1.07925781 10.32074219 1.08789062 11.16210938 C1.10442051 15.24499084 1.03035098 19.01651707 0 23 C-0.99 22.67 -1.98 22.34 -3 22 C-3.125 19.125 -3.125 19.125 -3 16 C-2.34 15.34 -1.68 14.68 -1 14 C-0.69940057 11.63490639 -0.50484988 9.25558119 -0.375 6.875 C-0.30023438 5.59367187 -0.22546875 4.31234375 -0.1484375 2.9921875 C-0.09945312 2.00476563 -0.05046875 1.01734375 0 0 Z " fill="#212121" transform="translate(60,115)"/>
<path d="M0 0 C0.33 0 0.66 0 1 0 C0.45806986 5.330123 -0.84658553 9.57894042 -3.0625 14.4375 C-3.34416016 15.07365234 -3.62582031 15.70980469 -3.91601562 16.36523438 C-4.60289812 17.91363051 -5.30034407 19.45733357 -6 21 C-6.33 21 -6.66 21 -7 21 C-7.4820659 15.47345883 -5.91119925 11.9287792 -3.5 7.125 C-3.16613281 6.43664063 -2.83226562 5.74828125 -2.48828125 5.0390625 C-1.66928273 3.35426554 -0.83606409 1.67639381 0 0 Z " fill="#333333" transform="translate(31,42)"/>
<path d="M0 0 C0.99 0.33 1.98 0.66 3 1 C2.125 8.625 2.125 8.625 1 12 C1.66 12.33 2.32 12.66 3 13 C2.01 13 1.02 13 0 13 C-1.44977894 10.65887549 -2.04314411 9.4203071 -1.7578125 6.640625 C-1.54898438 5.85171875 -1.34015625 5.0628125 -1.125 4.25 C-0.92132813 3.45078125 -0.71765625 2.6515625 -0.5078125 1.828125 C-0.34023438 1.22484375 -0.17265625 0.6215625 0 0 Z " fill="#414141" transform="translate(62,93)"/>
<path d="M0 0 C0.66 0.33 1.32 0.66 2 1 C1.05528846 9.1875 1.05528846 9.1875 -1 12 C-3.125 12.75 -3.125 12.75 -5 13 C-3.58192622 8.52761347 -1.88695626 4.28853694 0 0 Z " fill="#B9B9B9" transform="translate(31,31)"/>
<path d="M0 0 C0.66 0.33 1.32 0.66 2 1 C1.74438677 3.3431213 1.40729228 5.67843403 1 8 C0.01 8.495 0.01 8.495 -1 9 C-1.65772428 12.02934491 -1.65772428 12.02934491 -2 15 C-2.99 15.33 -3.98 15.66 -5 16 C-5 12.7 -5 9.4 -5 6 C-3.35 5.67 -1.7 5.34 0 5 C0 3.35 0 1.7 0 0 Z " fill="#626262" transform="translate(63,2)"/>
<path d="M0 0 C-0.62648438 0.21914062 -1.25296875 0.43828125 -1.8984375 0.6640625 C-7.34966914 2.64276688 -7.34966914 2.64276688 -10.5625 7.25 C-10.706875 8.1575 -10.85125 9.065 -11 10 C-11.66 10 -12.32 10 -13 10 C-12.8125 6.6875 -12.8125 6.6875 -12 3 C-8.11930855 -0.06370378 -4.78527252 -1.48508458 0 0 Z " fill="#BCBCBC" transform="translate(77,90)"/>
<path d="M0 0 C2.97 0.495 2.97 0.495 6 1 C6 7.6 6 14.2 6 21 C5.67 21 5.34 21 5 21 C5 15.39 5 9.78 5 4 C2.525 3.01 2.525 3.01 0 2 C0 1.34 0 0.68 0 0 Z " fill="#343435" transform="translate(82,9)"/>
<path d="M0 0 C2 1 2 1 3.1875 3.5 C4.21126193 7.91005138 3.72732066 11.57710406 3 16 C2.67 16 2.34 16 2 16 C0.80911014 10.61972975 -0.2919519 5.54708616 0 0 Z " fill="#929292" transform="translate(7,79)"/>
<path d="M0 0 C-0.66 1.32 -1.32 2.64 -2 4 C-4.875 4.1875 -4.875 4.1875 -8 4 C-8.66 3.01 -9.32 2.02 -10 1 C-3.375 -1.125 -3.375 -1.125 0 0 Z " fill="#272727" transform="translate(50,22)"/>
<path d="M0 0 C-0.33 1.65 -0.66 3.3 -1 5 C-3.3125 5.6875 -3.3125 5.6875 -6 6 C-7.8125 4.5625 -7.8125 4.5625 -9 3 C-5.73209435 0.82139623 -3.91954654 0 0 0 Z " fill="#393939" transform="translate(124,86)"/>
<path d="M0 0 C3 1 3 1 6 3 C4.73392393 3.53229326 3.46189588 4.05044544 2.1875 4.5625 C1.47980469 4.85253906 0.77210937 5.14257812 0.04296875 5.44140625 C-2 6 -2 6 -5 5 C-3.35 3.35 -1.7 1.7 0 0 Z " fill="#EAEAEA" transform="translate(78,47)"/>
<path d="M0 0 C0.33 0 0.66 0 1 0 C1 2.64 1 5.28 1 8 C3.475 8.99 3.475 8.99 6 10 C5.01 10.495 5.01 10.495 4 11 C4 11.66 4 12.32 4 13 C2.35 12.67 0.7 12.34 -1 12 C-0.67 8.04 -0.34 4.08 0 0 Z " fill="#686868" transform="translate(93,6)"/>
<path d="M0 0 C0 0.66 0 1.32 0 2 C-0.99 2.495 -0.99 2.495 -2 3 C-2.4683265 5.58605332 -2.4683265 5.58605332 -2.625 8.5625 C-2.69976562 9.57441406 -2.77453125 10.58632813 -2.8515625 11.62890625 C-2.90054688 12.41136719 -2.94953125 13.19382812 -3 14 C-5.20914 10.68629 -5.22481553 9.6553979 -5.125 5.8125 C-5.10695313 4.91144531 -5.08890625 4.01039062 -5.0703125 3.08203125 C-5.04710938 2.39496094 -5.02390625 1.70789062 -5 1 C-2 0 -2 0 0 0 Z " fill="#325269" transform="translate(72,12)"/>
<path d="M0 0 C1 3 1 3 0.00390625 5.48046875 C-0.47175781 6.37378906 -0.94742188 7.26710938 -1.4375 8.1875 C-1.91058594 9.08855469 -2.38367188 9.98960938 -2.87109375 10.91796875 C-3.24363281 11.60503906 -3.61617188 12.29210937 -4 13 C-4.33 13 -4.66 13 -5 13 C-4.54996653 7.37458159 -3.31558515 4.38512875 0 0 Z " fill="#303030" transform="translate(72,56)"/>
<path d="M0 0 C2.97 0 5.94 0 9 0 C8.67 0.99 8.34 1.98 8 3 C1.25 4.125 1.25 4.125 -1 3 C-0.67 2.01 -0.34 1.02 0 0 Z " fill="#25292D" transform="translate(77,3)"/>
<path d="M0 0 C0.99 0.33 1.98 0.66 3 1 C3 5.95 3 10.9 3 16 C2.67 16 2.34 16 2 16 C1.67 12.7 1.34 9.4 1 6 C0.67 6 0.34 6 0 6 C0 4.02 0 2.04 0 0 Z " fill="#1E1E1E" transform="translate(150,82)"/>
<path d="M0 0 C5.01317493 1.67105831 8.02017994 5.76551886 11 10 C7.96147295 8.59023295 5.4060405 6.91129772 2.75 4.875 C2.04359375 4.33617188 1.3371875 3.79734375 0.609375 3.2421875 C0.07828125 2.83226563 -0.4528125 2.42234375 -1 2 C-0.67 1.34 -0.34 0.68 0 0 Z " fill="#CACACA" transform="translate(29,62)"/>
<path d="M0 0 C-0.33 0.99 -0.66 1.98 -1 3 C-2.98 3.33 -4.96 3.66 -7 4 C-7 4.99 -7 5.98 -7 7 C-10 6 -10 6 -12 3 C-10.56445975 2.49440092 -9.1264798 1.9957251 -7.6875 1.5 C-6.88699219 1.2215625 -6.08648437 0.943125 -5.26171875 0.65625 C-3 0 -3 0 0 0 Z " fill="#373737" transform="translate(85,99)"/>
<path d="M0 0 C2.4375 0.8125 2.4375 0.8125 5 2 C6.13643966 5.40931897 5.86747764 6.00335456 4.5625 9.1875 C4.27503906 9.90292969 3.98757812 10.61835937 3.69140625 11.35546875 C3.46324219 11.89816406 3.23507813 12.44085938 3 13 C2 10 2 10 2.625 7.0625 C3.32250531 3.9806608 3.32250531 3.9806608 1.5625 1.625 C1.046875 1.08875 0.53125 0.5525 0 0 Z " fill="#E2E2E2" transform="translate(57,88)"/>
<path d="M0 0 C-0.33 1.32 -0.66 2.64 -1 4 C-3.875 4.125 -3.875 4.125 -7 4 C-7.66 3.34 -8.32 2.68 -9 2 C-3.375 0 -3.375 0 0 0 Z " fill="#CBCBCB" transform="translate(59,23)"/>
<path d="M0 0 C0.33 0 0.66 0 1 0 C1.66 4.62 2.32 9.24 3 14 C2.01 14.33 1.02 14.66 0 15 C0 10.05 0 5.1 0 0 Z " fill="#AEAEAE" transform="translate(61,124)"/>
<path d="M0 0 C1.98 0.66 3.96 1.32 6 2 C6.33 3.65 6.66 5.3 7 7 C4.03 6.505 4.03 6.505 1 6 C1.66 4.68 2.32 3.36 3 2 C2.01 1.67 1.02 1.34 0 1 C0 0.67 0 0.34 0 0 Z " fill="#E2E2E2" transform="translate(137,64)"/>
<path d="M0 0 C0 0.66 0 1.32 0 2 C-4.05431692 3.15837626 -6.21812119 2.83691257 -10 1 C-10 0.67 -10 0.34 -10 0 C-6.30458414 -0.95024979 -3.69541586 -0.95024979 0 0 Z " fill="#508DBB" transform="translate(90,6)"/>
<path d="M0 0 C0.66 0.99 1.32 1.98 2 3 C1.15955106 6.43183318 0.51471866 8.48528134 -2 11 C-2.95465783 8.83032311 -3.14401212 7.43671207 -2.3984375 5.17578125 C-1.64129615 3.4315257 -0.82390802 1.71372869 0 0 Z " fill="#3B3B3B" transform="translate(65,52)"/>
<path d="M0 0 C0 0.66 0 1.32 0 2 C-7.625 3.25 -7.625 3.25 -11 1 C-3.57142857 -1.42857143 -3.57142857 -1.42857143 0 0 Z " fill="#444749" transform="translate(87,43)"/>
<path d="M0 0 C3.93774177 -0.36630156 5.56539771 -0.30233203 8.875 2 C9.926875 2.99 9.926875 2.99 11 4 C8.1875 4.625 8.1875 4.625 5 5 C4.01 4.34 3.02 3.68 2 3 C2.66 3 3.32 3 4 3 C4 2.34 4 1.68 4 1 C2.68 0.67 1.36 0.34 0 0 Z " fill="#585B5D" transform="translate(70,0)"/>
<path d="M0 0 C2.49361571 1.20381448 4.68143083 2.45428722 7 4 C6.67 4.99 6.34 5.98 6 7 C4.02 6.01 2.04 5.02 0 4 C0 2.66666667 0 1.33333333 0 0 Z " fill="#5D5D5D" transform="translate(40,72)"/>
<path d="M0 0 C6.52307692 0.61538462 6.52307692 0.61538462 8.9375 2.5625 C9.288125 3.036875 9.63875 3.51125 10 4 C7 5 7 5 5.17578125 4.22265625 C3.45052083 3.1484375 1.72526042 2.07421875 0 1 C0 0.67 0 0.34 0 0 Z " fill="#343739" transform="translate(50,34)"/>
<path d="M0 0 C0.33 0.99 0.66 1.98 1 3 C-0.65 2.67 -2.3 2.34 -4 2 C-4 1.34 -4 0.68 -4 0 C-5.32 -0.33 -6.64 -0.66 -8 -1 C-4.63757626 -2.20086562 -2.95940955 -2.0409721 0 0 Z " fill="#575858" transform="translate(90,3)"/>
<path d="M0 0 C-0.33 1.65 -0.66 3.3 -1 5 C-2.32 5 -3.64 5 -5 5 C-5.33 3.68 -5.66 2.36 -6 1 C-3 0 -3 0 0 0 Z " fill="#353535" transform="translate(94,96)"/>
<path d="M0 0 C0 0.66 0 1.32 0 2 C-4.455 2.495 -4.455 2.495 -9 3 C-9 2.34 -9 1.68 -9 1 C-5.846632 0.29925156 -3.27275026 0 0 0 Z " fill="#2A2A2A" transform="translate(89,50)"/>
<path d="M0 0 C1.65 0 3.3 0 5 0 C5.33 0.99 5.66 1.98 6 3 C4.35 3.33 2.7 3.66 1 4 C0.67 2.68 0.34 1.36 0 0 Z " fill="#2D2D2D" transform="translate(112,89)"/>
<path d="M0 0 C1.32 0 2.64 0 4 0 C4.33 0.99 4.66 1.98 5 3 C3.35 3.33 1.7 3.66 0 4 C-0.33 3.01 -0.66 2.02 -1 1 C-0.67 0.67 -0.34 0.34 0 0 Z " fill="#282828" transform="translate(137,81)"/>
<path d="M0 0 C0.33 0.66 0.66 1.32 1 2 C3.31 2 5.62 2 8 2 C5.08235 3.9451 3.37462715 4.45276317 0 5 C0 3.35 0 1.7 0 0 Z " fill="#A3A3A3" transform="translate(123,58)"/>
<path d="M0 0 C0.66 0.66 1.32 1.32 2 2 C1.01 2.99 0.02 3.98 -1 5 C-1.33 4.01 -1.66 3.02 -2 2 C-1.34 1.34 -0.68 0.68 0 0 Z M-4 1 C-3.34 1.99 -2.68 2.98 -2 4 C-3.32 4.33 -4.64 4.66 -6 5 C-5.34 3.68 -4.68 2.36 -4 1 Z " fill="#404040" transform="translate(8,59)"/>
<path d="M0 0 C0.103125 0.639375 0.20625 1.27875 0.3125 1.9375 C0.539375 2.618125 0.76625 3.29875 1 4 C1.99 4.33 2.98 4.66 4 5 C3.01 5.495 3.01 5.495 2 6 C-0.4750171 4.88568235 -2.67883419 3.41849022 -5 2 C-2 0 -2 0 0 0 Z " fill="#282828" transform="translate(120,29)"/>
<path d="M0 0 C1.32 0 2.64 0 4 0 C4.33 0.99 4.66 1.98 5 3 C2.69 3.33 0.38 3.66 -2 4 C-1.34 2.68 -0.68 1.36 0 0 Z " fill="#272727" transform="translate(124,86)"/>
</svg>
